<svg width="981" height="784" viewBox="0 0 981 784" fill="none" xmlns="http://www.w3.org/2000/svg">
<path d="M443.248 372.035C441.924 371.795 439.801 371.379 438.532 371.111L436.224 370.622L436.884 315.363C437.247 284.97 437.789 259.487 438.089 258.733C438.389 257.98 439.022 257.595 439.496 257.877C439.97 258.16 440.358 257.992 440.358 257.503C440.358 256.968 449.029 256.559 462.147 256.475C489.227 256.303 487.525 255.413 487.638 269.81C487.683 275.48 488.034 282.549 488.418 285.518C488.802 288.487 488.84 291.081 488.504 291.282C488.167 291.482 488.09 309.376 488.333 331.046L488.776 370.444L486.481 371.039C483.631 371.778 446.545 372.633 443.248 372.035ZM446.465 242.419L446.38 232.597L450.834 232.224C456.467 231.753 466.253 231.745 473.109 232.205L478.406 232.562L478.57 242.092L478.733 251.623L470.864 252.245C466.536 252.587 459.294 252.726 454.772 252.554L446.549 252.242L446.465 242.419ZM452.808 226.919C452.187 220.993 452.271 205.379 452.914 207.171C453.665 209.263 453.733 209.169 453.599 206.229C453.517 204.432 453.732 202.521 454.078 201.982C454.431 201.431 457.65 201.039 461.423 201.088C469.733 201.194 471.905 202.655 471.471 207.846C471.25 210.492 471.386 210.897 472.023 209.494C472.584 208.261 472.916 210.998 473.01 217.626L473.151 227.616H463.016C457.441 227.616 452.848 227.302 452.808 226.919ZM469.094 210.547C469.539 208.318 468.075 206.953 466.045 207.705C464.423 208.305 463.869 210.958 465.115 212.16C466.303 213.306 468.74 212.319 469.094 210.547Z" fill="url(#paint0_linear_52_828)"/>
<path d="M443.248 372.035C441.924 371.795 439.801 371.379 438.532 371.111L436.224 370.622L436.884 315.363C437.247 284.97 437.789 259.487 438.089 258.733C438.389 257.98 439.022 257.595 439.496 257.877C439.97 258.16 440.358 257.992 440.358 257.503C440.358 256.968 449.029 256.559 462.147 256.475C489.227 256.303 487.525 255.413 487.638 269.81C487.683 275.48 488.034 282.549 488.418 285.518C488.802 288.487 488.84 291.081 488.504 291.282C488.167 291.482 488.09 309.376 488.333 331.046L488.776 370.444L486.481 371.039C483.631 371.778 446.545 372.633 443.248 372.035ZM446.465 242.419L446.38 232.597L450.834 232.224C456.467 231.753 466.253 231.745 473.109 232.205L478.406 232.562L478.57 242.092L478.733 251.623L470.864 252.245C466.536 252.587 459.294 252.726 454.772 252.554L446.549 252.242L446.465 242.419ZM452.808 226.919C452.187 220.993 452.271 205.379 452.914 207.171C453.665 209.263 453.733 209.169 453.599 206.229C453.517 204.432 453.732 202.521 454.078 201.982C454.431 201.431 457.65 201.039 461.423 201.088C469.733 201.194 471.905 202.655 471.471 207.846C471.25 210.492 471.386 210.897 472.023 209.494C472.584 208.261 472.916 210.998 473.01 217.626L473.151 227.616H463.016C457.441 227.616 452.848 227.302 452.808 226.919ZM469.094 210.547C469.539 208.318 468.075 206.953 466.045 207.705C464.423 208.305 463.869 210.958 465.115 212.16C466.303 213.306 468.74 212.319 469.094 210.547Z" fill="url(#paint1_linear_52_828)"/>
<path d="M391.536 624.01C385.415 621.4 384.071 614.117 386.957 599.2C391.741 574.477 405.207 547.961 425.455 523.391C437.458 508.826 459.181 488.24 480.848 470.898L485.149 467.455L462.031 467.463L438.914 467.472L443.192 470.906C445.545 472.795 449.662 476.36 452.342 478.828L457.215 483.314L451.436 488.42C448.257 491.228 444.247 494.591 442.524 495.893L439.391 498.261L432.891 492.897C414.49 477.712 399.88 460.561 394.535 447.87C386.413 428.585 387.804 406.759 398.464 386.228C401.351 380.667 413.29 363.976 416.211 361.417C416.512 361.153 420.786 356.905 425.708 351.978L434.657 343.02L434.517 332.44C434.378 321.937 434.358 321.849 431.732 320.396C428.639 318.683 416.339 304.041 410.08 294.62C400.935 280.855 392.6 262.254 387.837 244.976C384.68 233.524 382.343 213.134 383.66 208.532C385.575 201.839 392.687 198.356 399.129 200.954C403.641 202.773 404.593 204.242 405.949 211.466L407.148 217.858L424.476 218.323L441.803 218.787V221.111V223.434L424.6 223.688L407.396 223.942L408.076 228.334C410.781 245.8 417.897 262.946 430.901 283.329L436.505 292.113V331.448C436.505 366.045 436.685 370.85 437.992 371.334C439.166 371.769 438.742 372.592 435.971 375.254C434.041 377.108 431.609 379.774 430.566 381.18L428.668 383.735H463.019H497.369L493.32 379.07C491.093 376.504 488.356 373.786 487.237 373.03C485.519 371.869 485.46 371.655 486.861 371.655C488.406 371.655 488.52 368.886 488.52 331.629V291.604L494.888 282.288C504.984 267.515 511.941 251.839 516.345 233.941C518.406 225.565 518.204 225.172 511.497 224.495C508.241 224.167 500.98 223.892 495.363 223.884C484.461 223.869 482.349 223.302 482.898 220.535C483.217 218.927 484.615 218.745 500.412 218.252C519.193 217.666 519.302 217.629 519.329 211.958C519.367 203.913 526.096 198.667 533.808 200.67C538.198 201.811 541.183 205.096 542.122 209.821C543.915 218.846 537.431 249.852 529.948 268.039C524.03 282.423 510.97 302.343 499.022 315.212L492.855 321.854L492.541 334.674C492.279 345.404 492.456 347.493 493.627 347.493C495.537 347.493 510.66 362.937 517.627 372.002C532.229 391.002 538.717 413.261 535.236 432.421C533.385 442.613 529.228 452.438 522.85 461.7C517.581 469.35 498.734 488.044 485.744 498.505C481.303 502.081 475.451 506.829 472.74 509.056C465.439 515.052 450.954 528.81 450.954 529.748C450.954 530.196 456.372 530.562 462.995 530.562C469.617 530.562 475.035 530.223 475.035 529.807C475.035 529.392 473.735 527.85 472.145 526.381C470.556 524.912 469.256 523.222 469.256 522.625C469.256 521.719 478.173 513.621 483.823 509.397C485.162 508.396 486.153 508.996 490.737 513.587C504.221 527.09 515.77 542.227 522.479 555.189C533.341 576.173 541.711 608.382 538.638 617.367C535.531 626.448 523.77 626.793 519.713 617.922L518.003 614.183L462.21 614.423L406.416 614.663L405.326 617.828C403.383 623.476 396.996 626.339 391.536 624.01ZM516.454 608.078C516.454 607.778 515.714 604.851 514.808 601.573L513.162 595.612H462.338H411.515L409.913 600.956C409.031 603.895 408.106 606.822 407.856 607.461C407.496 608.382 418.707 608.622 461.928 608.622C491.918 608.622 516.454 608.377 516.454 608.078ZM511.638 587.775C511.638 587.042 510.498 583.905 509.104 580.805L506.57 575.168H463.29H420.01L417.18 581.188C415.624 584.499 414.351 587.635 414.351 588.158C414.351 588.792 430.511 589.107 462.995 589.107C504.598 589.107 511.638 588.914 511.638 587.775ZM502.958 568.895C502.951 568.512 501.499 565.689 499.731 562.623L496.516 557.047H462.995H429.473L426.258 562.623C424.49 565.689 423.038 568.512 423.032 568.895C423.025 569.279 441.009 569.592 462.995 569.592C484.981 569.592 502.964 569.279 502.958 568.895ZM491.41 549.551C491.41 548.756 486.604 542.573 483.331 539.158L480.437 536.138H463.224C453.706 536.138 445.215 536.549 444.229 537.058C443.249 537.564 440.475 540.701 438.064 544.028L433.68 550.077H462.545C478.421 550.077 491.41 549.84 491.41 549.551ZM497.65 455.574C500.575 452.153 502.969 449.016 502.969 448.605C502.969 448.193 484.764 447.856 462.513 447.856C440.262 447.856 422.057 448.193 422.057 448.605C422.057 449.016 424.45 452.153 427.376 455.574L432.695 461.795H462.513H492.331L497.65 455.574ZM508.648 438.752C509.675 436.812 510.815 433.676 511.183 431.783L511.853 428.341H462.707H413.562L414.809 432.755C415.495 435.183 416.529 438.319 417.106 439.725L418.156 442.28H462.47H506.783L508.648 438.752ZM512.289 417.345C511.966 414.364 511.424 411.228 511.085 410.375C510.521 408.958 506.42 408.826 462.948 408.826C429.313 408.826 415.236 409.126 414.77 409.852C414.409 410.417 413.89 413.553 413.618 416.822L413.124 422.765H463H512.876L512.289 417.345ZM508.748 402.749C508.748 401.871 504.715 394.519 502.778 391.867L500.911 389.311H462.495H424.078L420.659 395.208C418.779 398.452 417.241 401.588 417.241 402.178C417.241 402.973 429.066 403.25 462.995 403.25C488.159 403.25 508.748 403.025 508.748 402.749ZM396.273 525.916C396.273 524.127 396.471 523.395 396.713 524.29C396.956 525.184 396.956 526.648 396.713 527.542C396.471 528.437 396.273 527.705 396.273 525.916ZM528.289 524.522C528.296 521.967 528.483 521.031 528.705 522.444C528.926 523.857 528.92 525.947 528.691 527.09C528.463 528.233 528.282 527.078 528.289 524.522ZM528.289 492.926C528.296 490.371 528.483 489.436 528.705 490.848C528.926 492.261 528.92 494.352 528.691 495.495C528.463 496.638 528.282 495.482 528.289 492.926ZM396.292 489.209C396.303 487.165 396.5 486.438 396.731 487.594C396.961 488.75 396.952 490.423 396.711 491.311C396.47 492.199 396.282 491.254 396.292 489.209ZM530.215 350.746C530.223 348.19 530.41 347.255 530.631 348.668C530.852 350.08 530.846 352.171 530.618 353.314C530.389 354.457 530.208 353.301 530.215 350.746ZM395.329 347.958C395.34 345.914 395.537 345.187 395.767 346.342C395.998 347.498 395.989 349.171 395.748 350.06C395.507 350.948 395.318 350.002 395.329 347.958ZM377.824 171.316C377.87 170.234 378.098 170.014 378.406 170.755C378.684 171.426 378.65 172.227 378.33 172.536C378.01 172.845 377.782 172.296 377.824 171.316Z" fill="url(#paint2_linear_52_828)"/>
<path d="M340.926 700.449C340.252 700.024 337.316 699.003 334.402 698.182C331.488 697.36 328.454 696.159 327.659 695.512C326.865 694.865 325.131 694.026 323.806 693.646C317.391 691.805 293.642 679.833 282.763 672.954C279.113 670.646 275.038 667.829 266.701 661.848C261.518 658.129 256.75 655.08 256.106 655.072C255.308 655.063 255.265 654.841 255.971 654.375C257.059 653.659 259.418 541.693 258.565 531.259C258.32 528.265 258.523 525.916 259.028 525.916C259.565 525.916 260.188 507.644 260.572 480.613L261.215 435.311L264.605 432.401L267.994 429.491L268.905 394.3C269.405 374.945 269.826 349.659 269.84 338.108C269.854 326.558 270.146 313.904 270.489 309.989C271.082 303.218 271.266 302.778 274.257 300.995C277.299 299.181 277.421 298.869 277.968 291.478C278.279 287.276 278.909 267.55 279.367 247.643L280.201 211.449L283.597 208.613C286.84 205.905 287.04 205.379 288.029 196.949C288.599 192.094 289.591 179.548 290.234 169.071L291.404 150.02L294.816 146.867L298.228 143.715L299.902 128.746C301.414 115.24 301.787 113.642 303.73 112.384C308.891 109.041 309.22 108.389 310.291 99.3742C311.6 88.3532 312.69 85.0391 315.406 83.8161C316.621 83.269 318.358 80.9012 319.426 78.3362C321.428 73.5269 325.718 66.9306 328.066 65.0508C330.841 62.8287 331.693 58.2011 330.033 54.3674C328.377 50.545 328.832 46.3064 331.093 44.4968C332.189 43.6188 332.477 40.2864 332.482 28.4025C332.491 9.56804 333.29 0.866619 335.073 0.206823C335.809 -0.0658194 336.639 -0.0693693 336.917 0.198925C337.195 0.467222 337.381 10.1093 337.329 21.6257C337.242 41.0739 337.366 42.6849 339.07 44.2525C341.881 46.8378 342.433 49.7658 340.73 53.0594C338.625 57.1311 338.829 61.4906 341.25 64.1515C344.127 67.3138 349.453 75.44 350.263 77.9032C350.639 79.0462 352.306 81.4743 353.966 83.299C357.019 86.6534 357.55 88.6471 360.052 106.157C360.573 109.803 361.186 110.865 363.41 111.975C367.236 113.883 367.771 115.348 368.484 125.859C369.602 142.34 369.856 143.357 373.467 145.743C377.298 148.276 377.447 149.057 378.136 170.187L378.612 184.778L373.939 189.382C371.369 191.914 368.978 194.862 368.626 195.932C368.274 197.003 367.617 197.878 367.167 197.878C364.564 197.878 363.496 215.532 365.253 229.499C368.089 252.035 381.208 287.175 392.603 302.76L395.568 306.814L395.435 331.266L395.302 355.718L389.787 363.798C376.602 383.114 371.392 397.342 370.365 416.843C369.717 429.151 371.587 443.04 374.854 450.179C375.79 452.224 376.88 454.942 377.277 456.22C378.593 460.45 384.592 470.513 390.497 478.394L396.319 486.164V507.863C396.319 526.308 396.085 529.907 394.757 531.862C390.602 537.98 382.225 553.741 378.408 562.623C372.382 576.642 366.155 598.126 364.784 609.621C363.383 621.367 368.31 633.649 376.725 639.389C388.719 647.57 405.68 646.387 416.581 636.61L419.294 634.178H462.513H505.732L508.444 636.61C509.936 637.948 513.324 640.248 515.973 641.721C520.356 644.159 521.611 644.4 529.94 644.4C538.182 644.4 539.537 644.147 543.585 641.851C549.45 638.525 553.468 634.576 556.955 628.712C559.611 624.243 559.782 623.338 559.786 613.733C559.79 604.796 559.308 601.729 555.949 589.325C553.836 581.522 551.409 573.576 550.557 571.668C549.704 569.76 547.587 564.853 545.851 560.764C541.968 551.617 534.467 537.659 531.217 533.532L528.799 530.462L528.788 508.314L528.776 486.166L534.119 479.4C537.058 475.679 541.698 468.209 544.43 462.801C547.163 457.392 549.807 452.212 550.307 451.289C552.603 447.045 554.954 432.067 554.969 421.588C554.983 411.225 552.28 394.248 550.199 391.634C549.792 391.123 548.738 388.569 547.856 385.959C546.233 381.159 537.608 366.342 533.135 360.67L530.702 357.585L530.562 331.792L530.421 305.998L532.95 302.798C538.662 295.571 547.879 275.36 554.311 255.959C559.34 240.791 562.486 216.917 560.785 206.832C559.589 199.747 557.332 195.515 551.886 190.149C546.597 184.938 546.773 186.249 548.186 162.609L548.989 149.177L552.413 146.15L555.837 143.123L557.389 129.457C559.041 114.913 559.663 112.847 562.659 111.929C565.03 111.203 566.297 107.12 567.708 95.6611C568.671 87.8405 569.117 86.5261 571.628 84.1032C573.186 82.5997 575.055 79.7473 575.78 77.7646C576.505 75.7819 579.087 71.6374 581.517 68.5546C587.912 60.4415 588.298 59.3405 586.371 54.6937C584.657 50.5622 585.013 46.1441 587.263 43.6171C588.168 42.6006 588.599 36.7603 588.852 22.0479C589.081 8.75024 589.569 1.51566 590.285 0.825653C592.475 -1.28723 593.003 2.46362 593.366 22.6831C593.676 39.9637 593.967 43.2676 595.258 44.1781C596.908 45.3419 597.128 49.4589 595.929 56.712C595.258 60.7737 595.431 61.2424 599.543 66.4695C604.235 72.4339 607.962 78.6701 607.962 80.5555C607.962 81.2092 609.26 82.8881 610.845 84.2864C613.441 86.5757 613.872 87.8004 615.177 96.5864C617.129 109.727 617.306 110.312 619.549 110.999C623.066 112.076 624.192 115.368 625.747 129.111C627.568 145.219 627.584 145.273 630.636 146.615C633.91 148.055 634.648 150.396 635.39 161.702C635.739 167.033 636.662 179.098 637.439 188.515L638.853 205.637L642.349 208.552C646.406 211.935 645.912 206.556 646.914 258.282C647.682 297.895 647.728 298.305 651.802 301.439C654.895 303.818 655.003 304.136 655.539 312.449C655.842 317.157 656.321 345.263 656.602 374.907L657.115 428.806L660.864 432.058L664.614 435.311L665.426 501.755C665.873 538.299 666.122 588.337 665.979 612.95L665.72 657.701L658.755 662.202C654.924 664.677 651.476 667.169 651.092 667.74C650.708 668.31 644.639 672.021 637.606 675.987C630.573 679.952 621.351 685.188 617.113 687.622C607.834 692.95 603.138 695.258 596.283 697.858C591.132 699.812 590.475 699.824 469.256 700.255C402.238 700.493 346.224 700.808 344.779 700.955C343.335 701.102 341.601 700.875 340.926 700.449ZM680.429 559.37C680.429 557.581 680.627 556.85 680.869 557.744C681.112 558.638 681.112 560.102 680.869 560.997C680.627 561.891 680.429 561.159 680.429 559.37ZM773.716 514.223C773.762 513.14 773.99 512.92 774.298 513.661C774.576 514.332 774.542 515.133 774.222 515.442C773.901 515.751 773.674 515.202 773.716 514.223ZM773.716 490.061C773.762 488.979 773.99 488.758 774.298 489.5C774.576 490.171 774.542 490.972 774.222 491.281C773.901 491.59 773.674 491.041 773.716 490.061ZM214.259 422.765C214.259 420.465 214.447 419.525 214.677 420.675C214.906 421.825 214.906 423.706 214.677 424.856C214.447 426.006 214.259 425.065 214.259 422.765Z" fill="url(#paint3_linear_52_828)"/>
<path d="M665.771 614.097L665.757 569.855L672.998 568.66C679.014 567.668 680.323 567.135 680.737 565.509C681.011 564.433 681.112 547.963 680.961 528.909L680.687 494.266L684.375 493.308C686.404 492.781 695.073 491.159 703.64 489.703C712.207 488.247 725.285 485.927 732.702 484.547C750.157 481.301 754.77 481.291 765.119 484.48L773.454 487.049L774.13 494.413C775.272 506.861 773.899 517.733 770.105 526.285C764.373 539.205 755.147 556.735 749.362 565.699C746.292 570.458 743.779 574.571 743.779 574.84C743.779 575.317 738.007 583.537 737.024 584.461C736.751 584.717 734.801 587.435 732.689 590.501C730.577 593.568 728.603 596.286 728.302 596.542C728.001 596.797 725.897 599.306 723.626 602.117C712.006 616.503 691.989 636.362 676.352 649.019C671.319 653.093 666.883 656.856 666.494 657.383C666.105 657.909 665.78 638.43 665.771 614.097ZM247.641 648.186C239.46 641.569 219.002 622.055 211.448 613.664C189.103 588.842 169.004 557.029 154.541 523.593C148.293 509.146 144.863 498.822 139.3 477.711C134.761 460.487 128.632 417.468 130.272 414.343C131.104 412.756 150.211 401.682 157.434 398.599L161.932 396.68L172.312 400.835C185.252 406.015 203.378 413.512 209.422 416.184C213.892 418.16 214 418.306 214.133 422.577C214.208 424.98 214.533 437.602 214.855 450.625L215.442 474.304L223.148 475.949C227.386 476.853 233.503 478.252 236.741 479.056L242.629 480.518L243.236 486.722C243.57 490.135 243.847 499.534 243.851 507.61L243.857 522.294L246.988 523.555C248.71 524.249 251.703 525.103 253.64 525.453C256.75 526.016 257.242 526.488 257.841 529.488C259.417 537.365 257.274 654.221 255.557 654.121C255.214 654.101 251.653 651.43 247.641 648.186Z" fill="url(#paint4_linear_52_828)"/>
<path d="M45.216 337.088C45.216 342.912 43.136 347.744 38.976 351.584C34.88 355.36 29.632 357.248 23.232 357.248C19.328 357.248 13.952 355.936 7.104 353.312C6.592 353.12 6.144 353.024 5.76 353.024C4.672 353.024 3.84 354.176 3.264 356.48C3.072 357.184 2.816 357.536 2.496 357.536C1.984 357.536 1.728 357.088 1.728 356.192C1.728 355.36 1.888 353.888 2.208 351.776C2.464 350.048 2.592 348.032 2.592 345.728C2.592 343.872 2.56 342.4 2.496 341.312C2.368 339.136 2.304 337.856 2.304 337.472C2.304 336.448 2.624 335.936 3.264 335.936C3.904 335.936 4.48 337.312 4.992 340.064C5.888 344.8 7.904 348.48 11.04 351.104C14.432 353.92 18.08 355.328 21.984 355.328C25.44 355.328 28.352 354.24 30.72 352.064C33.088 349.888 34.272 347.232 34.272 344.096C34.272 341.408 33.504 339.264 31.968 337.664C30.816 336.512 27.104 334.24 20.832 330.848C13.856 327.136 9.12 323.424 6.624 319.712C4.32 316.32 3.168 312.288 3.168 307.616C3.168 302.112 5.12 297.568 9.024 293.984C12.928 290.336 17.856 288.512 23.808 288.512C27.008 288.512 30.432 289.28 34.08 290.816C35.296 291.328 36.16 291.584 36.672 291.584C37.632 291.584 38.272 290.752 38.592 289.088C38.72 288.512 39.008 288.224 39.456 288.224C40.096 288.224 40.416 288.64 40.416 289.472C40.416 289.792 40.352 290.688 40.224 292.16C40.096 293.632 40.032 294.848 40.032 295.808C40.032 299.136 40.16 301.952 40.416 304.256C40.48 304.448 40.512 304.704 40.512 305.024C40.512 305.6 40.256 305.888 39.744 305.888C39.168 305.888 38.592 304.864 38.016 302.816C37.44 300.768 36.416 298.752 34.944 296.768C33.536 294.72 32.096 293.248 30.624 292.352C28.704 291.2 26.464 290.624 23.904 290.624C20.32 290.624 17.472 291.488 15.36 293.216C13.248 294.944 12.192 297.312 12.192 300.32C12.192 302.944 13.184 305.28 15.168 307.328C17.152 309.312 20.96 311.872 26.592 315.008C33.504 318.848 38.08 321.92 40.32 324.224C43.584 327.616 45.216 331.904 45.216 337.088ZM128.649 355.136C128.649 355.776 127.465 356.096 125.097 356.096C123.049 356.096 120.073 356.064 116.169 356C113.289 355.936 111.305 355.936 110.217 356L104.841 356.192L100.521 356.288C99.113 356.288 98.409 356 98.409 355.424C98.409 354.976 98.569 354.72 98.889 354.656C99.273 354.592 100.425 354.528 102.345 354.464C103.369 354.464 103.881 354.144 103.881 353.504C103.881 353.248 102.121 350.656 98.601 345.728L84.489 325.952C83.657 325.12 83.049 324.448 82.665 323.936V348.32C82.665 351.2 82.889 352.928 83.337 353.504C83.849 354.016 85.481 354.336 88.233 354.464C89.833 354.528 90.633 354.848 90.633 355.424C90.633 356 90.057 356.288 88.905 356.288L82.857 356.192C78.825 356.128 74.697 356.096 70.473 356.096C69.833 356.096 68.841 356.128 67.497 356.192C66.217 356.256 64.841 356.288 63.369 356.288H62.121C61.097 356.288 60.585 356 60.585 355.424C60.585 354.848 61.641 354.528 63.753 354.464C65.929 354.4 67.241 354.112 67.689 353.6C68.201 353.088 68.457 351.68 68.457 349.376V293.984C68.457 293.088 68.233 292.48 67.785 292.16C67.145 291.776 65.769 291.584 63.657 291.584C61.801 291.584 60.873 291.296 60.873 290.72C60.873 290.208 61.321 289.952 62.217 289.952L73.833 290.144C73.961 290.144 74.345 290.144 74.985 290.144C75.689 290.08 76.329 290.048 76.905 290.048L82.857 289.952H86.793C87.497 289.888 88.265 289.856 89.097 289.856C89.865 289.856 90.249 290.144 90.249 290.72C90.249 291.168 89.481 291.424 87.945 291.488C85.385 291.616 83.849 291.872 83.337 292.256C82.889 292.576 82.665 293.696 82.665 295.616V320.96C84.393 319.552 90.217 313.248 100.137 302.048C104.553 297.056 106.761 293.888 106.761 292.544C106.761 292.096 106.473 291.84 105.897 291.776C105.321 291.648 103.689 291.584 101.001 291.584C100.105 291.584 99.657 291.296 99.657 290.72C99.657 290.08 100.425 289.792 101.961 289.856L106.185 289.952C106.313 289.952 106.601 289.952 107.049 289.952C107.625 289.888 108.137 289.856 108.585 289.856H118.473C119.369 289.856 119.817 290.144 119.817 290.72C119.817 291.36 119.305 291.68 118.281 291.68C115.913 291.68 114.281 291.84 113.385 292.16C112.553 292.48 111.529 293.248 110.313 294.464C104.361 300.672 98.153 307.552 91.689 315.104C92.777 316.64 95.849 320.64 100.905 327.104C104.425 331.52 109.449 337.952 115.977 346.4C118.857 350.24 120.745 352.544 121.641 353.312C122.537 354.016 123.849 354.368 125.577 354.368C127.625 354.368 128.649 354.624 128.649 355.136ZM169.202 355.328C169.202 355.84 168.786 356.096 167.954 356.096C167.506 356.096 167.09 356.064 166.706 356C162.866 355.808 159.57 355.712 156.818 355.712C153.938 355.712 149.714 355.808 144.146 356C142.29 356.064 140.914 356.096 140.018 356.096C139.058 356.096 138.578 355.808 138.578 355.232C138.578 354.912 138.738 354.72 139.058 354.656C139.442 354.592 140.69 354.528 142.802 354.464C144.786 354.08 145.938 353.504 146.258 352.736C146.578 351.904 146.738 349.312 146.738 344.96V298.784C146.738 297.568 146.738 296.384 146.738 295.232C146.674 294.08 146.642 293.536 146.642 293.6C146.642 292 145.042 291.2 141.842 291.2C140.05 291.2 139.154 290.976 139.154 290.528C139.154 290.08 139.282 289.824 139.538 289.76C139.794 289.696 140.626 289.664 142.034 289.664C141.394 289.664 142.546 289.696 145.49 289.76C148.434 289.824 150.962 289.856 153.074 289.856H157.97C158.994 289.856 160.434 289.824 162.29 289.76C164.21 289.632 165.554 289.568 166.322 289.568H167.282C168.114 289.568 168.53 289.824 168.53 290.336C168.53 290.72 168.37 290.976 168.05 291.104C167.794 291.168 166.834 291.232 165.17 291.296C163.186 291.424 161.97 291.84 161.522 292.544L161.234 294.368V348.608C161.234 351.36 161.522 352.992 162.098 353.504C162.738 354.016 164.818 354.368 168.338 354.56C168.914 354.624 169.202 354.88 169.202 355.328ZM246.188 290.624C246.188 290.944 245.932 291.136 245.42 291.2C244.972 291.264 243.276 291.36 240.332 291.488C238.604 291.552 237.612 291.904 237.356 292.544C237.1 292.928 237.004 294.976 237.068 298.688L237.164 309.824C237.228 317.248 237.26 326.944 237.26 338.912V355.232C237.26 356.32 237.036 356.864 236.588 356.864C235.884 356.864 231.212 351.584 222.572 341.024C213.996 330.4 204.556 318.272 194.252 304.64V311.744C194.252 314.176 194.284 316.288 194.348 318.08C194.348 319.872 194.348 320.96 194.348 321.344V351.2C194.348 352.544 194.764 353.376 195.596 353.696C196.94 354.208 198.508 354.464 200.3 354.464C202.412 354.464 203.596 354.624 203.852 354.944C203.916 355.008 203.948 355.136 203.948 355.328C203.948 355.84 203.468 356.096 202.508 356.096C201.932 356.096 201.452 356.064 201.068 356C197.228 355.872 194.828 355.808 193.868 355.808C191.628 355.808 188.684 355.872 185.036 356C183.244 356.064 182.476 356.096 182.732 356.096C181.772 356.096 181.292 355.84 181.292 355.328C181.292 354.88 182.7 354.56 185.516 354.368C188.78 354.112 190.668 353.6 191.18 352.832C191.5 352.32 191.66 350.016 191.66 345.92V306.464C191.66 302.432 191.596 300 191.468 299.168C191.084 296.352 189.964 294.304 188.108 293.024C186.7 292.064 184.076 291.52 180.236 291.392C179.212 291.328 178.7 291.04 178.7 290.528C178.7 289.952 179.148 289.664 180.044 289.664C180.428 289.664 181.804 289.728 184.172 289.856C185.324 289.92 187.052 289.952 189.356 289.952C194.092 289.952 197.932 289.888 200.876 289.76L234.572 333.056V295.04C234.572 293.504 234.316 292.544 233.804 292.16C233.292 291.712 232.204 291.456 230.54 291.392L226.412 291.2C225.644 291.136 225.26 290.912 225.26 290.528C225.26 290.016 225.836 289.76 226.988 289.76H229.1C229.484 289.76 230.124 289.728 231.02 289.664C231.852 289.664 232.588 289.664 233.228 289.664C239.692 289.664 243.468 289.696 244.556 289.76C245.644 289.824 246.188 290.112 246.188 290.624Z" fill="#6B367B"/>
<path d="M735.832 307.424C735.832 307.936 735.608 308.192 735.16 308.192C734.456 308.192 733.816 306.944 733.24 304.448C732.088 299.52 730.488 296.16 728.44 294.368C726.392 292.576 723.128 291.68 718.648 291.68C716.92 291.68 715.416 291.744 714.136 291.872L714.232 350.24C714.296 351.84 714.744 352.864 715.576 353.312C716.408 353.76 718.648 354.144 722.296 354.464C723 354.528 723.352 354.816 723.352 355.328C723.352 355.968 722.84 356.288 721.816 356.288C721.624 356.288 721.144 356.256 720.376 356.192C719.416 356.128 718.616 356.096 717.976 356.096L708.088 355.808L691.768 356.096C690.872 356.096 690.424 355.84 690.424 355.328C690.424 354.944 690.552 354.72 690.808 354.656C691.064 354.592 692.12 354.528 693.976 354.464C697.496 354.336 699.384 353.504 699.64 351.968C699.768 351.136 699.832 344.64 699.832 332.48V291.872C699.128 291.808 698.296 291.776 697.336 291.776C692.216 291.776 688.472 292.736 686.104 294.656C683.8 296.512 682.296 299.84 681.592 304.64C681.144 307.456 680.568 308.864 679.864 308.864C679.288 308.864 679 308.48 679 307.712C679 307.2 679.128 305.44 679.384 302.432C679.896 296.16 680.216 291.872 680.344 289.568H681.784L688.792 289.472C688.984 289.472 691.192 289.536 695.416 289.664C699.704 289.792 705.144 289.856 711.736 289.856C715.384 289.856 718.648 289.824 721.528 289.76C724.408 289.696 727.032 289.664 729.4 289.664C731.512 289.664 733.112 289.6 734.2 289.472C734.392 293.632 734.872 298.944 735.64 305.408C735.768 306.496 735.832 307.168 735.832 307.424ZM802.066 339.2C802.066 339.328 802.034 342.304 801.97 348.128C801.906 351.2 801.842 353.408 801.778 354.752C801.778 356.096 801.778 356.736 801.778 356.672C784.882 355.904 770.098 355.68 757.426 356L749.362 356.192C748.21 356.192 747.634 355.936 747.634 355.424C747.634 355.04 747.762 354.816 748.018 354.752C748.338 354.688 749.33 354.592 750.994 354.464C754.002 354.272 755.634 353.408 755.89 351.872C756.018 351.04 756.082 350.112 756.082 349.088V300.416C756.082 296.576 756.05 294.464 755.986 294.08C755.922 293.056 755.602 292.352 755.026 291.968C754.45 291.584 753.266 291.392 751.474 291.392C749.49 291.392 748.498 291.104 748.498 290.528C748.498 289.888 749.362 289.568 751.09 289.568C752.882 289.568 755.346 289.536 758.482 289.472C770.258 289.216 779.89 289.152 787.378 289.28L793.906 289.376C795.314 289.376 797.042 289.248 799.09 288.992L799.954 299.456C800.274 302.784 800.434 304.832 800.434 305.6C800.434 306.24 800.114 306.56 799.474 306.56C798.834 306.56 798.418 305.728 798.226 304.064C797.65 299.648 795.858 296.448 792.85 294.464C789.906 292.416 785.522 291.392 779.698 291.392C777.906 291.392 774.834 291.488 770.482 291.68V320C777.522 320.064 781.938 319.584 783.73 318.56C785.586 317.472 786.834 314.72 787.474 310.304C787.794 307.936 788.274 306.752 788.914 306.752C789.49 306.752 789.778 307.328 789.778 308.48C789.778 309.632 789.682 312 789.49 315.584C789.426 316.8 789.394 318.432 789.394 320.48C789.394 325.984 789.458 330.144 789.586 332.96C789.65 333.344 789.682 333.824 789.682 334.4C789.682 335.168 789.394 335.552 788.818 335.552C788.37 335.552 788.082 335.424 787.954 335.168C787.826 334.848 787.634 333.792 787.378 332C786.738 327.456 785.842 324.64 784.69 323.552C783.602 322.4 781.042 321.824 777.01 321.824H770.482V354.176L776.626 354.08C783.666 353.952 787.954 353.792 789.49 353.6C791.41 353.344 793.266 352.64 795.058 351.488C796.658 350.208 797.746 348.832 798.322 347.36C798.962 345.888 799.634 343.168 800.338 339.2C800.53 338.24 800.85 337.76 801.298 337.76C801.81 337.76 802.066 338.24 802.066 339.2ZM869.816 339.776C869.816 340.992 869.784 342.016 869.72 342.848C869.464 345.664 869.368 347.936 869.432 349.664L869.528 356.48C861.336 356.16 846.52 356 825.08 356H821.048C818.232 356 816.824 355.744 816.824 355.232C816.824 354.72 817.272 354.464 818.168 354.464C821.368 354.4 823.416 353.952 824.312 353.12C824.888 352.608 825.176 351.072 825.176 348.512L825.08 296.48C825.08 294.304 824.888 292.96 824.504 292.448C823.736 291.488 822.552 291.04 820.952 291.104L818.552 291.2C817.848 291.2 817.496 290.944 817.496 290.432C817.496 289.92 817.944 289.664 818.84 289.664C819.352 289.664 819.864 289.696 820.376 289.76H844.76C845.08 289.696 845.432 289.664 845.816 289.664C846.456 289.664 846.776 289.92 846.776 290.432C846.776 291.008 845.944 291.296 844.28 291.296C841.912 291.296 840.504 291.584 840.056 292.16C839.672 292.736 839.48 295.264 839.48 299.744V322.592C839.48 327.264 839.608 337.728 839.864 353.984C841.08 354.048 842.456 354.08 843.992 354.08C850.712 354.08 855.352 353.824 857.912 353.312C861.944 352.48 864.696 350.432 866.168 347.168C866.936 345.504 867.64 342.848 868.28 339.2C868.472 338.176 868.76 337.664 869.144 337.664C869.592 337.664 869.816 338.368 869.816 339.776ZM936.003 339.776C936.003 340.992 935.971 342.016 935.907 342.848C935.651 345.664 935.555 347.936 935.619 349.664L935.715 356.48C927.523 356.16 912.707 356 891.267 356H887.235C884.419 356 883.011 355.744 883.011 355.232C883.011 354.72 883.459 354.464 884.355 354.464C887.555 354.4 889.603 353.952 890.499 353.12C891.075 352.608 891.363 351.072 891.363 348.512L891.267 296.48C891.267 294.304 891.075 292.96 890.691 292.448C889.923 291.488 888.739 291.04 887.139 291.104L884.739 291.2C884.035 291.2 883.683 290.944 883.683 290.432C883.683 289.92 884.131 289.664 885.027 289.664C885.539 289.664 886.051 289.696 886.563 289.76H910.947C911.267 289.696 911.619 289.664 912.003 289.664C912.643 289.664 912.963 289.92 912.963 290.432C912.963 291.008 912.131 291.296 910.467 291.296C908.099 291.296 906.691 291.584 906.243 292.16C905.859 292.736 905.667 295.264 905.667 299.744V322.592C905.667 327.264 905.795 337.728 906.051 353.984C907.267 354.048 908.643 354.08 910.179 354.08C916.899 354.08 921.539 353.824 924.099 353.312C928.131 352.48 930.883 350.432 932.355 347.168C933.123 345.504 933.827 342.848 934.467 339.2C934.659 338.176 934.947 337.664 935.331 337.664C935.779 337.664 936.003 338.368 936.003 339.776ZM980.015 355.328C980.015 355.84 979.599 356.096 978.767 356.096C978.319 356.096 977.903 356.064 977.519 356C973.679 355.808 970.383 355.712 967.631 355.712C964.751 355.712 960.527 355.808 954.959 356C953.103 356.064 951.727 356.096 950.831 356.096C949.871 356.096 949.391 355.808 949.391 355.232C949.391 354.912 949.551 354.72 949.871 354.656C950.255 354.592 951.503 354.528 953.615 354.464C955.599 354.08 956.751 353.504 957.071 352.736C957.391 351.904 957.551 349.312 957.551 344.96V298.784C957.551 297.568 957.551 296.384 957.551 295.232C957.487 294.08 957.455 293.536 957.455 293.6C957.455 292 955.855 291.2 952.655 291.2C950.863 291.2 949.967 290.976 949.967 290.528C949.967 290.08 950.095 289.824 950.351 289.76C950.607 289.696 951.439 289.664 952.847 289.664C952.207 289.664 953.359 289.696 956.303 289.76C959.247 289.824 961.775 289.856 963.887 289.856H968.783C969.807 289.856 971.247 289.824 973.103 289.76C975.023 289.632 976.367 289.568 977.135 289.568H978.095C978.927 289.568 979.343 289.824 979.343 290.336C979.343 290.72 979.183 290.976 978.863 291.104C978.607 291.168 977.647 291.232 975.983 291.296C973.999 291.424 972.783 291.84 972.335 292.544L972.047 294.368V348.608C972.047 351.36 972.335 352.992 972.911 353.504C973.551 354.016 975.631 354.368 979.151 354.56C979.727 354.624 980.015 354.88 980.015 355.328Z" fill="#6B367B"/>
<path d="M229.413 691.332C229.268 691.523 229.012 691.464 228.645 691.154L228.452 690.992C228.048 690.652 227.339 690.039 226.326 689.154C225.331 688.285 224.585 687.642 224.09 687.224C223.888 687.054 223.458 686.708 222.801 686.186C222.177 685.66 221.333 684.949 220.268 684.052L219.58 683.473C219.323 683.256 219.26 683.062 219.391 682.89C219.521 682.718 219.715 682.741 219.972 682.957L220.887 683.774C221.717 684.504 222.347 684.785 222.778 684.615C222.905 684.565 223.369 684.016 224.168 682.965L235.96 667.417C234.166 668.507 231.476 670.378 227.89 673.031L218.822 679.779C217.714 680.601 217.068 680.934 216.885 680.78C216.683 680.61 216.703 680.188 216.945 679.514C217.021 679.296 217.829 676.968 219.369 672.53C219.95 670.857 221.616 666.195 224.366 658.545L213.093 673.355C212.438 674.214 212.055 674.737 211.943 674.925C211.845 675.093 211.826 675.296 211.885 675.535C211.972 676.015 212.352 676.524 213.028 677.061C213.703 677.599 213.954 677.982 213.779 678.211C213.677 678.345 213.489 678.296 213.214 678.064L210.807 675.942C210.399 675.568 209.905 675.167 209.325 674.742C208.562 674.162 208.052 673.763 207.795 673.547C207.409 673.222 207.282 672.974 207.413 672.802C207.529 672.649 207.743 672.704 208.055 672.967C208.79 673.586 209.238 673.947 209.399 674.052C210.026 674.455 210.524 674.513 210.892 674.228C211.121 674.045 211.512 673.591 212.065 672.865L222.466 659.202C223.629 657.674 224.213 656.709 224.218 656.306C224.257 655.899 223.707 655.217 222.569 654.258C222.275 654.011 222.194 653.801 222.324 653.629C222.47 653.438 222.691 653.484 222.989 653.766L223.71 654.42L228.936 658.775C228.991 658.821 229.085 658.916 229.217 659.059C226.751 665.663 224.729 671.168 223.152 675.575L236.921 665.5L237.5 665.987L241.112 669.077C241.167 669.124 241.324 669.255 241.581 669.471C241.87 669.684 242.125 669.883 242.346 670.069L243.612 671.136C243.98 671.445 244.098 671.686 243.967 671.857C243.821 672.048 243.646 672.042 243.44 671.837L242.829 671.275C242.087 670.587 241.505 670.223 241.085 670.182C240.682 670.157 240.27 670.421 239.849 670.975C239.733 671.127 239.487 671.469 239.113 672C238.739 672.531 236.924 674.936 233.668 679.213L227.584 687.205C227.06 687.893 226.92 688.433 227.164 688.826C227.44 689.215 227.915 689.678 228.591 690.216C229.284 690.769 229.559 691.141 229.413 691.332Z" fill="#6B367B"/>
<path d="M258.183 711.864C258.08 712.026 257.937 712.072 257.754 712.002C257.604 711.926 257.224 711.674 256.616 711.246C256.458 711.136 256.023 710.815 255.309 710.284C253.882 709.223 252.893 708.499 252.343 708.113C251.695 707.657 251.12 707.267 250.616 706.942C249.608 706.293 248.928 705.844 248.574 705.596C248.044 705.223 247.843 704.936 247.972 704.733C248.1 704.531 248.731 704.812 249.863 705.579C250.138 705.772 250.357 705.896 250.52 705.952C250.86 706.133 251.094 706.122 251.223 705.919C251.287 705.818 251.44 705.309 251.68 704.394L252.316 701.984C252.481 701.456 252.747 700.456 253.114 698.985L252.583 698.612L250.305 696.967C249.493 696.367 248.613 695.764 247.664 695.156C247.23 695.437 246.317 696.114 244.926 697.187L243.023 698.707C242.732 698.942 242.529 699.15 242.413 699.333C242.194 699.677 242.269 700.052 242.636 700.457C242.722 700.546 243.177 700.925 244.002 701.592C244.265 701.806 244.344 701.994 244.241 702.156C244.125 702.338 243.891 702.305 243.537 702.057L238.696 698.611C238.566 698.549 238.432 698.469 238.294 698.373C238.019 698.179 237.946 697.982 238.075 697.779C238.152 697.657 238.508 697.79 239.142 698.177C239.953 698.689 240.551 698.889 240.934 698.777C241.317 698.666 242.211 698.063 243.616 696.97C244.632 696.219 246.124 695.099 248.092 693.61L258.083 685.995C258.543 685.673 259.232 685.147 260.151 684.415C260.804 683.878 261.19 683.651 261.308 683.734C261.426 683.817 261.346 684.435 261.068 685.587C260.702 687.059 259.432 692.993 257.259 703.391C256.982 704.721 256.693 706.071 256.391 707.441C256.133 708.607 256.107 709.409 256.312 709.846C256.464 710.188 257.028 710.686 258.003 711.342C258.239 711.508 258.299 711.682 258.183 711.864ZM253.332 698.171C253.351 698.097 253.404 697.856 253.493 697.449C254.2 694.547 254.679 692.496 254.93 691.295C254.999 690.963 255.106 690.481 255.251 689.85L255.422 689.179C254.515 689.802 253.317 690.704 251.829 691.885C250.166 693.207 248.988 694.122 248.295 694.632C248.472 694.756 248.694 694.898 248.962 695.057C249.198 695.222 249.414 695.374 249.61 695.512L251.26 696.671C251.712 696.989 252.402 697.489 253.332 698.171Z" fill="#6B367B"/>
<path d="M281.973 719.518C281.754 719.918 281.559 720.249 281.389 720.51C280.8 721.387 280.36 722.115 280.069 722.696L278.873 724.957C276.303 723.26 271.579 720.33 264.702 716.165L263.409 715.382C262.505 714.834 262.1 714.477 262.192 714.308C262.284 714.14 262.474 714.143 262.761 714.317C263.799 714.917 264.537 715.168 264.974 715.068C265.251 715.012 265.62 714.562 266.081 713.72L275.419 696.586C275.811 695.87 275.991 695.391 275.96 695.148C275.887 694.683 275.587 694.305 275.063 694.016L274.276 693.581C274.05 693.444 273.983 693.292 274.075 693.123C274.167 692.955 274.357 692.958 274.644 693.132C274.809 693.231 274.967 693.341 275.12 693.462L282.941 698.198C283.056 698.24 283.174 698.297 283.297 698.372C283.503 698.496 283.559 698.643 283.467 698.811C283.363 699.001 283.045 698.934 282.511 698.61C281.751 698.15 281.248 697.972 281 698.074C280.773 698.189 280.257 698.983 279.45 700.457L275.336 707.973C274.495 709.51 272.652 712.976 269.807 718.374C270.186 718.631 270.621 718.909 271.114 719.207C273.269 720.512 274.804 721.33 275.717 721.658C277.16 722.168 278.412 722.029 279.472 721.241C280.018 720.843 280.722 720.106 281.584 719.03C281.83 718.731 282.014 718.618 282.138 718.693C282.281 718.78 282.226 719.055 281.973 719.518Z" fill="#6B367B"/>
<path d="M304.002 737.388C303.921 737.562 303.785 737.627 303.594 737.582C303.435 737.527 303.025 737.329 302.363 736.988C302.193 736.9 301.718 736.641 300.939 736.213C299.381 735.355 298.303 734.772 297.706 734.464C297.002 734.101 296.378 733.793 295.835 733.54C294.748 733.033 294.013 732.681 293.629 732.483C293.053 732.186 292.815 731.929 292.917 731.711C293.018 731.494 293.682 731.687 294.908 732.293C295.207 732.447 295.441 732.541 295.61 732.574C295.972 732.707 296.203 732.664 296.305 732.446C296.355 732.338 296.44 731.815 296.56 730.878L296.876 728.411C296.971 727.866 297.105 726.842 297.276 725.339L296.7 725.042L294.22 723.722C293.334 723.238 292.38 722.759 291.357 722.286C290.962 722.622 290.144 723.414 288.901 724.661L287.208 726.419C286.949 726.691 286.774 726.924 286.683 727.12C286.511 727.49 286.634 727.85 287.052 728.201C287.149 728.278 287.651 728.591 288.559 729.14C288.848 729.316 288.951 729.491 288.87 729.665C288.779 729.86 288.541 729.859 288.157 729.661L282.893 726.906C282.755 726.862 282.612 726.801 282.462 726.724C282.164 726.57 282.065 726.384 282.166 726.167C282.227 726.036 282.598 726.12 283.28 726.417C284.153 726.814 284.773 726.931 285.14 726.769C285.506 726.608 286.316 725.892 287.569 724.622C288.482 723.744 289.819 722.437 291.58 720.701L300.516 711.832C300.931 711.453 301.548 710.84 302.366 709.993C302.945 709.375 303.299 709.098 303.427 709.164C303.555 709.23 303.556 709.852 303.431 711.028C303.259 712.532 302.774 718.568 301.975 729.138C301.874 730.489 301.763 731.862 301.642 733.256C301.538 734.444 301.617 735.24 301.878 735.645C302.074 735.962 302.7 736.379 303.755 736.896C304.011 737.028 304.094 737.192 304.002 737.388ZM297.387 724.505C297.396 724.429 297.418 724.184 297.452 723.77C297.775 720.806 297.983 718.715 298.076 717.494C298.101 717.156 298.144 716.666 298.206 716.023L298.287 715.337C297.467 716.074 296.395 717.127 295.07 718.494C293.589 720.024 292.538 721.087 291.916 721.684C292.108 721.783 292.348 721.893 292.635 722.014C292.891 722.146 293.126 722.267 293.339 722.377L295.131 723.301C295.621 723.554 296.373 723.955 297.387 724.505Z" fill="#6B367B"/>
<path d="M336.789 725.106C336.729 725.263 336.551 725.292 336.255 725.192C334.926 724.707 334.081 724.531 333.721 724.665C333.461 724.607 331.982 725.921 329.283 728.606C328.699 729.192 327.84 730.026 326.706 731.109C325.331 732.349 324.483 733.188 324.162 733.625C323.849 734.039 323.447 734.885 322.958 736.163L320.402 742.934C320.256 743.315 320.312 743.638 320.569 743.904C320.858 744.156 321.473 744.495 322.414 744.92C322.901 745.126 323.101 745.342 323.015 745.566C322.946 745.745 322.702 745.746 322.282 745.568C322.194 745.53 321.944 745.411 321.533 745.211C321.024 744.995 320.322 744.684 319.424 744.278L316.786 743.12C316.719 743.092 316.428 742.981 315.911 742.788C315.284 742.548 314.727 742.325 314.241 742.119L312.14 741.267C311.786 741.117 311.644 740.953 311.713 740.774C311.781 740.594 311.971 740.57 312.28 740.701C313.857 741.344 314.775 741.564 315.033 741.361C315.247 741.269 315.462 740.943 315.677 740.383L318.73 732.416C318.764 730.451 318.566 727.683 318.136 724.114C318.019 722.475 317.77 720.377 317.389 717.818C317.234 717.284 316.77 716.853 315.997 716.525L315.632 716.37C315.535 716.355 315.42 716.319 315.288 716.263C314.846 716.076 314.672 715.859 314.767 715.612C314.844 715.411 315.115 715.408 315.579 715.605C315.512 715.577 315.608 715.63 315.864 715.765C316.099 715.891 316.514 716.08 317.111 716.333L321.009 718.025C321.163 718.09 321.406 718.193 321.738 718.334C322.144 718.48 322.635 718.675 323.209 718.918L325.165 719.748C325.386 719.841 325.622 719.928 325.873 720.009C326.117 720.112 326.227 720.159 326.205 720.15C326.647 720.337 326.833 720.52 326.765 720.7C326.713 720.834 326.628 720.889 326.509 720.865C326.412 720.85 326.017 720.708 325.323 720.44C324.091 719.97 323.38 719.981 323.191 720.474C323.054 720.832 322.989 721.235 322.998 721.682C323.015 722.106 323.118 723.413 323.306 725.603C323.478 727.5 323.702 729.731 323.977 732.296C325.135 731.354 326.888 729.727 329.239 727.415C331.005 725.689 331.961 724.635 332.107 724.254C332.296 723.761 332.07 723.379 331.429 723.107C330.448 722.717 330.001 722.41 330.086 722.186C330.181 721.94 330.434 721.917 330.845 722.117L331.76 722.544C332.37 722.829 333.416 723.285 334.896 723.913L336.155 724.447C336.664 724.662 336.875 724.882 336.789 725.106Z" fill="#6B367B"/>
<path d="M351.866 748.841C351.216 750.926 349.94 752.402 348.037 753.268C346.164 754.12 344.093 754.155 341.824 753.373C340.439 752.895 338.68 751.769 336.545 749.993C336.384 749.861 336.236 749.772 336.1 749.725C335.714 749.592 335.291 749.903 334.83 750.658C334.683 750.886 334.553 750.981 334.44 750.942C334.258 750.879 334.217 750.688 334.317 750.367C334.41 750.069 334.631 749.561 334.98 748.844C335.264 748.257 335.534 747.551 335.791 746.726C335.998 746.061 336.151 745.53 336.249 745.133C336.447 744.338 336.567 743.872 336.609 743.735C336.724 743.368 336.894 743.224 337.121 743.302C337.348 743.38 337.399 743.943 337.273 744.991C337.063 746.796 337.367 748.36 338.186 749.683C339.075 751.106 340.211 752.056 341.595 752.533C342.82 752.955 343.974 752.921 345.056 752.431C346.139 751.942 346.855 751.135 347.204 750.013C347.504 749.05 347.471 748.189 347.105 747.428C346.825 746.875 345.762 745.608 343.917 743.627C341.858 741.446 340.593 739.538 340.122 737.904C339.683 736.408 339.725 734.824 340.246 733.151C340.86 731.18 342.058 729.792 343.842 728.986C345.633 728.157 347.584 728.106 349.694 728.833C350.828 729.224 351.957 729.918 353.079 730.913C353.453 731.245 353.731 731.443 353.912 731.505C354.252 731.622 354.572 731.403 354.871 730.846C354.981 730.655 355.115 730.588 355.274 730.642C355.501 730.72 355.568 730.909 355.475 731.206C355.439 731.321 355.317 731.634 355.107 732.145C354.898 732.657 354.739 733.084 354.632 733.428C354.261 734.62 353.992 735.643 353.826 736.5C353.827 736.576 353.81 736.672 353.774 736.786C353.71 736.992 353.587 737.064 353.406 737.002C353.202 736.931 353.112 736.494 353.136 735.691C353.16 734.887 353.022 734.04 352.721 733.15C352.45 732.245 352.104 731.542 351.682 731.041C351.13 730.394 350.4 729.914 349.492 729.601C348.222 729.163 347.116 729.125 346.174 729.485C345.233 729.846 344.594 730.565 344.259 731.642C343.966 732.581 344.057 733.539 344.532 734.514C345.014 735.467 346.079 736.849 347.726 738.66C349.748 740.879 351.028 742.538 351.565 743.637C352.344 745.25 352.444 746.985 351.866 748.841Z" fill="#6B367B"/>
<path d="M367.878 760.635C367.83 760.821 367.656 760.871 367.356 760.785C367.194 760.738 367.047 760.684 366.915 760.621C365.549 760.154 364.37 759.779 363.378 759.494C362.339 759.197 360.808 758.795 358.783 758.289C358.107 758.121 357.608 757.99 357.285 757.897C356.939 757.798 356.793 757.644 356.848 757.435C356.878 757.319 356.954 757.266 357.075 757.275C357.219 757.292 357.675 757.398 358.443 757.593C359.194 757.658 359.663 757.568 359.851 757.323C360.045 757.054 360.346 756.129 360.756 754.549L365.1 737.787C365.214 737.346 365.325 736.916 365.434 736.498C365.519 736.073 365.559 735.872 365.553 735.895C365.703 735.315 365.202 734.859 364.048 734.528C363.402 734.343 363.1 734.169 363.142 734.006C363.185 733.844 363.255 733.764 363.353 733.767C363.451 733.77 363.754 733.845 364.262 733.99C364.031 733.924 364.443 734.055 365.499 734.382C366.554 734.71 367.462 734.983 368.223 735.201L369.988 735.707C370.357 735.813 370.88 735.95 371.555 736.119C372.259 736.271 372.749 736.386 373.026 736.466L373.372 736.565C373.672 736.651 373.798 736.787 373.75 736.973C373.714 737.112 373.632 737.189 373.504 737.202C373.406 737.199 373.054 737.123 372.448 736.974C371.721 736.815 371.244 736.841 371.016 737.05L370.74 737.682L365.638 757.372C365.379 758.371 365.329 758.993 365.489 759.239C365.671 759.491 366.388 759.833 367.639 760.267C367.84 760.35 367.92 760.472 367.878 760.635Z" fill="#6B367B"/>
<path d="M395.505 766.936C395.467 767.125 395.349 767.221 395.152 767.226C394.984 767.213 394.536 767.125 393.81 766.963C393.623 766.921 393.098 766.792 392.236 766.574C390.513 766.14 389.323 765.849 388.667 765.703C387.894 765.53 387.213 765.39 386.622 765.282C385.442 765.067 384.641 764.913 384.219 764.819C383.587 764.677 383.294 764.489 383.342 764.254C383.389 764.018 384.083 764.038 385.423 764.313C385.751 764.387 386.001 764.418 386.175 764.408C386.559 764.444 386.775 764.345 386.823 764.11C386.846 763.992 386.806 763.467 386.7 762.534L386.426 760.075C386.39 759.526 386.278 758.505 386.09 757.013L385.458 756.871L382.725 756.223C381.746 755.98 380.701 755.758 379.591 755.559C379.285 755.983 378.673 756.952 377.755 758.468L376.518 760.589C376.33 760.915 376.214 761.185 376.171 761.396C376.09 761.796 376.296 762.113 376.787 762.346C376.9 762.395 377.464 762.571 378.48 762.872C378.803 762.968 378.946 763.111 378.908 763.299C378.865 763.511 378.633 763.57 378.211 763.475L372.422 762.144C372.276 762.136 372.122 762.114 371.958 762.077C371.63 762.004 371.49 761.849 371.537 761.614C371.566 761.473 371.948 761.46 372.683 761.575C373.63 761.738 374.263 761.695 374.582 761.447C374.902 761.199 375.523 760.305 376.446 758.765C377.129 757.689 378.125 756.092 379.434 753.975L386.059 743.175C386.375 742.705 386.831 741.959 387.43 740.937C387.849 740.195 388.129 739.839 388.269 739.871C388.41 739.902 388.558 740.501 388.714 741.667C388.902 743.159 389.856 749.101 391.574 759.493C391.796 760.821 392.012 762.172 392.224 763.547C392.403 764.718 392.668 765.466 393.019 765.79C393.285 766.047 393.995 766.291 395.147 766.524C395.428 766.587 395.548 766.725 395.505 766.936ZM386.001 756.181C385.992 756.105 385.955 755.864 385.891 755.456C385.505 752.517 385.214 750.448 385.016 749.248C384.96 748.916 384.887 748.433 384.795 747.798L384.712 747.115C384.086 748.033 383.288 749.317 382.318 750.969C381.234 752.816 380.46 754.106 379.994 754.838C380.204 754.885 380.464 754.931 380.774 754.975C381.055 755.038 381.312 755.096 381.547 755.148L383.514 755.588C384.053 755.709 384.882 755.906 386.001 756.181Z" fill="#6B367B"/>
<path d="M430.343 764.827C430.121 766.999 429.162 768.714 427.465 769.971C425.795 771.207 423.767 771.69 421.382 771.42C419.927 771.256 417.974 770.54 415.523 769.272C415.339 769.179 415.176 769.124 415.033 769.108C414.628 769.062 414.274 769.457 413.971 770.292C413.873 770.546 413.764 770.667 413.645 770.653C413.454 770.632 413.375 770.454 413.41 770.12C413.441 769.809 413.557 769.267 413.757 768.492C413.918 767.859 414.043 767.112 414.131 766.252C414.202 765.56 414.246 765.009 414.264 764.601C414.299 763.784 414.324 763.304 414.339 763.16C414.378 762.778 414.517 762.601 414.755 762.628C414.993 762.655 415.156 763.192 415.241 764.241C415.394 766.045 416.005 767.503 417.074 768.614C418.23 769.808 419.536 770.487 420.99 770.652C422.278 770.797 423.405 770.514 424.37 769.802C425.336 769.09 425.878 768.15 425.998 766.98C426.1 765.977 425.896 765.145 425.385 764.483C424.999 764.005 423.703 763 421.495 761.471C419.038 759.792 417.415 758.207 416.626 756.717C415.897 755.354 415.622 753.802 415.8 752.059C416.01 750.006 416.911 748.393 418.502 747.22C420.096 746.024 422.002 745.551 424.22 745.803C425.412 745.937 426.659 746.368 427.96 747.095C428.393 747.338 428.705 747.469 428.896 747.491C429.254 747.532 429.524 747.248 429.707 746.641C429.776 746.431 429.895 746.336 430.062 746.355C430.3 746.382 430.404 746.551 430.372 746.861C430.36 746.98 430.302 747.312 430.198 747.856C430.094 748.399 430.024 748.85 429.987 749.209C429.86 750.45 429.8 751.506 429.808 752.376C429.824 752.451 429.826 752.547 429.814 752.667C429.792 752.882 429.686 752.978 429.495 752.957C429.28 752.932 429.105 752.526 428.968 751.738C428.832 750.95 428.527 750.154 428.054 749.352C427.608 748.529 427.128 747.919 426.613 747.523C425.942 747.012 425.129 746.702 424.175 746.594C422.84 746.443 421.745 746.646 420.893 747.201C420.04 747.757 419.556 748.595 419.441 749.718C419.341 750.697 419.621 751.61 420.282 752.457C420.946 753.281 422.267 754.397 424.246 755.804C426.675 757.528 428.263 758.867 429.01 759.821C430.097 761.224 430.541 762.893 430.343 764.827Z" fill="#6B367B"/>
<path d="M461.26 773.227C461.253 773.419 461.153 773.535 460.959 773.575C460.79 773.592 460.334 773.585 459.591 773.554C459.399 773.546 458.86 773.512 457.974 773.451C456.201 773.33 454.979 773.255 454.307 773.227C453.516 773.194 452.82 773.177 452.22 773.176C451.019 773.175 450.203 773.165 449.771 773.147C449.124 773.12 448.805 772.987 448.814 772.747C448.823 772.507 449.511 772.403 450.879 772.436C451.214 772.45 451.467 772.437 451.637 772.396C452.022 772.364 452.219 772.228 452.228 771.988C452.233 771.868 452.108 771.358 451.854 770.459L451.186 768.089C451.062 767.556 450.786 766.571 450.36 765.137L449.712 765.11L446.908 764.957C445.902 764.891 444.834 764.859 443.706 764.86C443.472 765.331 443.024 766.393 442.361 768.047L441.482 770.353C441.349 770.708 441.278 770.993 441.27 771.209C441.255 771.617 441.509 771.891 442.032 772.033C442.151 772.062 442.736 772.134 443.789 772.25C444.124 772.288 444.287 772.403 444.28 772.595C444.272 772.811 444.052 772.91 443.621 772.892L437.687 772.609C437.542 772.627 437.386 772.633 437.218 772.626C436.882 772.612 436.719 772.485 436.728 772.245C436.733 772.102 437.109 772.021 437.854 772.004C438.815 771.996 439.433 771.841 439.709 771.54C439.984 771.24 440.453 770.25 441.117 768.572C441.617 767.392 442.343 765.645 443.295 763.33L448.096 751.531C448.332 751.012 448.663 750.197 449.089 749.086C449.383 748.282 449.602 747.882 449.746 747.888C449.89 747.894 450.133 748.457 450.475 749.576C450.902 751.011 452.802 756.687 456.177 766.603C456.61 767.87 457.042 769.161 457.473 770.476C457.839 771.596 458.222 772.285 458.62 772.541C458.925 772.746 459.665 772.861 460.841 772.886C461.129 772.898 461.268 773.011 461.26 773.227ZM450.138 764.335C450.117 764.262 450.041 764.03 449.912 763.641C449.057 760.819 448.435 758.835 448.045 757.69C447.937 757.373 447.786 756.911 447.593 756.302L447.402 755.646C446.931 756.659 446.35 758.064 445.658 759.861C444.887 761.871 444.329 763.277 443.987 764.079C444.203 764.088 444.467 764.087 444.78 764.076C445.068 764.088 445.331 764.099 445.571 764.109L447.585 764.193C448.137 764.216 448.988 764.263 450.138 764.335Z" fill="#6B367B"/>
<path d="M484.826 754.206C484.831 754.398 484.75 754.496 484.582 754.501C484.438 754.506 484.329 754.449 484.253 754.331C484.202 754.213 484.082 753.809 483.895 753.118C483.361 751.214 482.402 749.959 481.016 749.354C480.19 748.995 478.733 748.848 476.646 748.913C475.686 748.943 474.584 749.014 473.339 749.124L473.648 760.136L474.692 760.104C476.947 760.033 478.343 759.75 478.881 759.253C479.444 758.755 479.838 757.41 480.065 755.218C480.104 754.905 480.219 754.745 480.411 754.739C480.603 754.733 480.704 754.91 480.714 755.27C480.711 755.15 480.704 755.318 480.692 755.775C480.681 756.207 480.689 756.928 480.717 757.935L480.783 760.274C480.83 761.954 480.874 763.069 480.913 763.62C480.952 764.147 480.977 764.602 480.987 764.986C480.998 765.37 480.896 765.565 480.68 765.572C480.368 765.582 480.177 765.203 480.108 764.437C479.939 762.69 479.475 761.564 478.716 761.059C478.349 760.806 477.71 760.694 476.798 760.722C475.575 760.76 474.531 760.805 473.669 760.856L473.913 769.564C473.957 771.1 474.102 771.996 474.349 772.252C474.596 772.508 475.428 772.615 476.843 772.571C477.275 772.557 477.493 772.646 477.499 772.838C477.505 773.054 477.28 773.169 476.824 773.184C476.297 773.2 475.66 773.208 474.916 773.207C473.428 773.205 471.748 773.233 469.877 773.292C468.557 773.333 467.395 773.405 466.389 773.508C466.246 773.537 466.078 773.554 465.887 773.56C465.599 773.569 465.452 773.465 465.446 773.249C465.44 773.033 465.82 772.902 466.587 772.854C467.713 772.771 468.329 772.487 468.436 772.004C468.526 771.809 468.565 771.472 468.551 770.992L467.929 750.121C467.871 749.787 467.721 749.563 467.478 749.451C467.258 749.338 466.8 749.268 466.103 749.241C465.43 749.214 465.091 749.117 465.086 748.949C465.08 748.709 465.316 748.582 465.796 748.567L466.48 748.545C466.576 748.542 467.487 748.502 469.213 748.424C471.131 748.317 472.822 748.24 474.285 748.194C476.467 748.103 478.314 748.045 479.826 748.022L482.31 747.981C482.694 747.969 483.269 747.915 484.034 747.819C484.307 750.692 484.555 752.677 484.778 753.775C484.806 753.918 484.822 754.062 484.826 754.206Z" fill="#6B367B"/>
<path d="M510.089 764.282C510.093 764.33 510.18 765.443 510.351 767.62C510.429 768.77 510.479 769.597 510.5 770.101C510.545 770.603 510.566 770.843 510.564 770.819C504.233 771.155 498.708 771.616 493.99 772.203L490.987 772.572C490.557 772.614 490.334 772.54 490.317 772.348C490.304 772.205 490.344 772.117 490.438 772.083C490.555 772.048 490.922 771.975 491.539 771.866C492.655 771.683 493.235 771.301 493.279 770.717C493.299 770.402 493.292 770.053 493.258 769.67L491.635 751.491C491.507 750.056 491.425 749.269 491.388 749.128C491.33 748.748 491.187 748.496 490.959 748.374C490.731 748.252 490.283 748.224 489.614 748.29C488.874 748.363 488.494 748.292 488.475 748.077C488.454 747.838 488.765 747.687 489.41 747.623C490.079 747.557 490.997 747.454 492.166 747.315C496.552 746.785 500.144 746.406 502.943 746.178L505.382 745.973C505.908 745.921 506.548 745.809 507.304 745.638L507.975 749.515C508.206 750.746 508.334 751.505 508.359 751.792C508.381 752.031 508.272 752.162 508.033 752.186C507.794 752.21 507.611 751.914 507.484 751.3C507.122 749.672 506.346 748.542 505.158 747.912C503.991 747.256 502.321 747.035 500.147 747.25C499.478 747.316 498.335 747.465 496.717 747.697L497.662 758.275C500.291 758.039 501.923 757.697 502.558 757.249C503.214 756.774 503.588 755.7 503.68 754.027C503.72 753.131 503.86 752.671 504.099 752.647C504.314 752.626 504.44 752.83 504.479 753.261C504.517 753.691 504.56 754.579 504.608 755.925C504.625 756.381 504.667 756.992 504.736 757.757C504.919 759.813 505.082 761.364 505.223 762.411C505.26 762.552 505.288 762.73 505.307 762.946C505.333 763.232 505.238 763.387 505.023 763.408C504.856 763.424 504.744 763.387 504.688 763.296C504.63 763.181 504.523 762.794 504.367 762.134C503.977 760.46 503.549 759.442 503.083 759.078C502.638 758.688 501.664 758.567 500.159 758.715L497.723 758.956L498.802 771.04L501.091 770.778C503.714 770.47 505.309 770.253 505.876 770.124C506.584 769.958 507.253 769.626 507.883 769.13C508.438 768.593 508.798 768.039 508.964 767.468C509.153 766.894 509.314 765.854 509.444 764.346C509.484 763.98 509.587 763.789 509.754 763.772C509.945 763.754 510.057 763.923 510.089 764.282Z" fill="#6B367B"/>
<path d="M533.248 748.45C533.277 748.64 533.209 748.749 533.043 748.777C532.783 748.82 532.476 748.398 532.122 747.508C531.417 745.753 530.636 744.607 529.777 744.071C528.919 743.534 527.661 743.405 526.005 743.685C525.366 743.792 524.813 743.91 524.347 744.037L527.68 765.669C527.794 766.259 528.017 766.61 528.35 766.724C528.683 766.839 529.533 766.841 530.9 766.733C531.164 766.712 531.311 766.797 531.34 766.987C531.376 767.224 531.205 767.375 530.826 767.439C530.755 767.451 530.576 767.469 530.288 767.493C529.929 767.529 529.632 767.567 529.395 767.607L525.722 768.117L519.704 769.241C519.373 769.297 519.192 769.23 519.164 769.04C519.142 768.898 519.177 768.807 519.268 768.767C519.359 768.727 519.745 768.638 520.428 768.498C521.723 768.231 522.374 767.805 522.382 767.22C522.382 766.903 522.039 764.491 521.352 759.983L519.058 744.929C518.794 744.949 518.484 744.989 518.129 745.049C516.236 745.368 514.906 745.958 514.139 746.817C513.391 747.649 513.023 748.976 513.034 750.8C513.028 751.871 512.894 752.429 512.634 752.473C512.421 752.509 512.293 752.385 512.249 752.1C512.22 751.91 512.168 751.25 512.093 750.119C511.928 747.762 511.804 746.152 511.721 745.29L512.254 745.2L514.84 744.728C514.911 744.716 515.731 744.602 517.3 744.386C518.893 744.166 520.908 743.85 523.346 743.439C524.695 743.212 525.9 742.997 526.961 742.793C528.022 742.59 528.991 742.415 529.867 742.267C530.648 742.135 531.236 742.012 531.631 741.897C531.937 743.427 532.414 745.366 533.063 747.715C533.172 748.11 533.234 748.355 533.248 748.45Z" fill="#6B367B"/>
<path d="M556.49 736.463C556.526 736.627 556.396 736.758 556.098 736.855C554.737 737.261 553.946 737.627 553.723 737.953C553.477 738.063 552.976 740.025 552.22 743.84C552.059 744.669 551.807 745.867 551.464 747.433C551.01 749.272 550.77 750.467 550.744 751.017C550.712 751.543 550.844 752.474 551.139 753.81L552.732 760.868C552.82 761.266 553.042 761.496 553.4 761.557C553.775 761.589 554.467 761.494 555.475 761.273C555.988 761.148 556.27 761.202 556.322 761.437C556.363 761.624 556.162 761.772 555.719 761.88C555.626 761.903 555.355 761.956 554.907 762.041C554.371 762.172 553.622 762.342 552.661 762.552L549.855 763.2C549.785 763.217 549.485 763.302 548.954 763.457C548.306 763.639 547.726 763.793 547.213 763.918L545.017 764.491C544.644 764.582 544.437 764.534 544.396 764.346C544.354 764.159 544.497 764.025 544.823 763.946C546.474 763.518 547.349 763.144 547.451 762.823C547.578 762.619 547.576 762.224 547.447 761.638L545.61 753.307C544.564 751.685 542.889 749.549 540.585 746.901C539.594 745.636 538.243 744.077 536.531 742.222C536.112 741.88 535.494 741.808 534.678 742.007L534.293 742.101C534.205 742.147 534.091 742.187 533.951 742.222C533.485 742.335 533.223 742.263 533.167 742.006C533.12 741.795 533.342 741.629 533.831 741.51C533.761 741.527 533.869 741.513 534.154 741.468C534.415 741.429 534.861 741.333 535.49 741.179L539.625 740.207C539.788 740.168 540.045 740.105 540.395 740.02C540.809 739.894 541.319 739.757 541.926 739.609L543.989 739.106C544.222 739.049 544.465 738.977 544.716 738.891C544.972 738.829 545.089 738.8 545.066 738.806C545.532 738.692 545.786 738.729 545.827 738.916C545.858 739.057 545.818 739.153 545.707 739.205C545.618 739.251 545.216 739.374 544.498 739.574C543.226 739.934 542.647 740.372 542.76 740.887C542.843 741.262 543.01 741.629 543.261 741.988C543.507 742.323 544.306 743.326 545.657 744.997C546.835 746.438 548.238 748.121 549.866 750.045C550.305 748.58 550.86 746.197 551.533 742.896C552.044 740.425 552.256 738.99 552.168 738.592C552.055 738.076 551.66 737.901 550.984 738.066C549.963 738.34 549.427 738.359 549.375 738.125C549.318 737.867 549.514 737.696 549.962 737.611L550.949 737.407C551.607 737.272 552.717 737.013 554.279 736.632L555.608 736.308C556.145 736.177 556.439 736.229 556.49 736.463Z" fill="#6B367B"/>
<path d="M597.799 741.659C598.265 743.072 598.239 744.448 597.72 745.786C597.194 747.101 596.232 748.206 594.835 749.099C593.73 749.808 592.655 750.379 591.611 750.811C590.566 751.243 587.462 752.401 582.299 754.285C581.578 754.549 581.145 754.693 581.003 754.72C580.86 754.747 580.766 754.691 580.721 754.555C580.653 754.35 580.98 754.115 581.701 753.852C582.446 753.581 582.874 753.309 582.987 753.039C583.092 752.745 583.005 752.176 582.727 751.333L576.244 731.789C576.026 731.128 575.395 730.976 574.35 731.331C573.554 731.596 573.125 731.638 573.065 731.455C572.998 731.25 573.212 731.057 573.708 730.876C574.196 730.749 574.666 730.603 575.117 730.439L583.233 727.477C588.442 725.577 591.639 726.427 592.827 730.029C593.812 733.014 592.482 735.568 588.837 737.69L588.814 737.851C591.249 737.499 593.027 737.527 594.146 737.935C595.988 738.617 597.205 739.858 597.799 741.659ZM587.867 731.992C586.777 728.687 585.218 727.404 583.188 728.145C582.467 728.408 581.993 728.619 581.768 728.778C581.325 729.118 581.193 729.562 581.373 730.109L584.35 739.135C586.357 738.403 587.615 737.548 588.126 736.57C588.637 735.592 588.551 734.066 587.867 731.992ZM592.332 743.462C591.272 740.248 589.742 738.712 587.743 738.855C586.954 738.913 585.883 739.189 584.53 739.682L585.252 741.64C585.44 742.21 585.684 743.028 585.985 744.092C586.135 744.625 586.447 745.609 586.921 747.045C587.732 749.507 588.232 750.793 588.42 750.903C588.683 751.088 589.232 751.028 590.066 750.724C592.839 749.712 593.594 747.291 592.332 743.462Z" fill="#6B367B"/>
<path d="M623.019 730.948C623.037 730.993 623.444 732.032 624.24 734.067C624.649 735.145 624.937 735.923 625.104 736.4C625.293 736.867 625.383 737.09 625.374 737.068C619.481 739.385 614.388 741.569 610.094 743.618L607.36 744.919C606.966 745.095 606.733 745.094 606.661 744.916C606.607 744.783 606.619 744.685 606.698 744.624C606.798 744.552 607.125 744.367 607.676 744.068C608.679 743.541 609.117 742.991 608.989 742.418C608.916 742.109 608.807 741.777 608.663 741.421L601.829 724.496C601.29 723.161 600.983 722.432 600.907 722.308C600.741 721.962 600.533 721.766 600.282 721.72C600.03 721.675 599.598 721.789 598.985 722.063C598.305 722.367 597.925 722.419 597.844 722.218C597.754 721.996 598.005 721.752 598.597 721.488C599.21 721.214 600.05 720.826 601.114 720.324C605.11 718.433 608.399 716.938 610.981 715.837L613.229 714.872C613.712 714.656 614.285 714.347 614.95 713.945L616.716 717.452C617.292 718.56 617.635 719.247 617.743 719.515C617.832 719.737 617.768 719.897 617.549 719.995C617.33 720.093 617.07 719.867 616.771 719.318C615.954 717.871 614.891 717.032 613.582 716.802C612.287 716.541 610.642 716.855 608.648 717.746C608.034 718.02 606.996 718.523 605.533 719.256L609.509 729.103C611.929 728.049 613.373 727.206 613.843 726.576C614.326 725.914 614.367 724.766 613.966 723.133C613.743 722.26 613.741 721.775 613.96 721.677C614.157 721.589 614.337 721.745 614.499 722.146C614.66 722.547 614.96 723.385 615.397 724.66C615.546 725.093 615.764 725.665 616.052 726.377C616.825 728.291 617.431 729.728 617.87 730.688C617.946 730.811 618.024 730.973 618.105 731.174C618.213 731.441 618.168 731.618 617.971 731.706C617.818 731.775 617.701 731.774 617.621 731.705C617.533 731.613 617.319 731.275 616.979 730.691C616.122 729.209 615.42 728.367 614.873 728.165C614.338 727.931 613.381 728.122 612.001 728.739L609.766 729.738L614.308 740.987L616.398 740.014C618.791 738.892 620.236 738.181 620.735 737.879C621.357 737.496 621.893 736.968 622.345 736.293C622.713 735.603 622.893 734.958 622.883 734.358C622.895 733.749 622.744 732.7 622.428 731.213C622.358 730.849 622.401 730.634 622.554 730.565C622.729 730.487 622.884 730.614 623.019 730.948Z" fill="#6B367B"/>
<path d="M651.138 722.937C651.222 723.11 651.19 723.263 651.041 723.397C650.904 723.498 650.507 723.724 649.851 724.075C649.681 724.166 649.2 724.41 648.407 724.807C646.82 725.602 645.73 726.158 645.138 726.475C644.44 726.848 643.831 727.188 643.313 727.492C642.275 728.102 641.566 728.508 641.186 728.712C640.614 729.018 640.276 729.063 640.172 728.847C640.067 728.631 640.613 728.189 641.809 727.522C642.105 727.364 642.317 727.223 642.444 727.101C642.761 726.876 642.868 726.656 642.764 726.44C642.711 726.332 642.365 725.946 641.724 725.283L640.039 723.533C639.682 723.125 638.984 722.398 637.944 721.349L637.372 721.655L634.881 722.948C633.982 723.402 633.045 723.917 632.072 724.492C632.09 725.026 632.201 726.191 632.403 727.986L632.724 730.466C632.775 730.847 632.848 731.135 632.942 731.329C633.119 731.696 633.467 731.81 633.985 731.668C634.101 731.633 634.64 731.399 635.603 730.966C635.909 730.829 636.105 730.847 636.188 731.02C636.282 731.214 636.139 731.413 635.758 731.617L630.505 734.387C630.389 734.477 630.256 734.561 630.108 734.641C629.812 734.799 629.612 734.77 629.507 734.554C629.444 734.425 629.731 734.163 630.366 733.769C631.191 733.272 631.652 732.822 631.749 732.416C631.846 732.011 631.788 730.899 631.575 729.082C631.455 727.787 631.263 725.877 631.001 723.352L629.621 710.504C629.582 709.927 629.486 709.04 629.333 707.844C629.211 706.985 629.213 706.521 629.34 706.453C629.467 706.385 629.94 706.757 630.759 707.57C631.799 708.618 636.096 712.656 643.65 719.683C644.617 720.579 645.594 721.498 646.582 722.438C647.422 723.24 648.075 723.652 648.539 723.676C648.897 723.701 649.59 723.426 650.616 722.849C650.87 722.713 651.044 722.743 651.138 722.937ZM637.377 720.755C637.324 720.702 637.151 720.536 636.857 720.259C634.798 718.205 633.333 716.773 632.461 715.961C632.219 715.737 631.872 715.406 631.421 714.968L630.948 714.486C631.016 715.619 631.173 717.154 631.417 719.09C631.691 721.255 631.869 722.778 631.949 723.66C632.14 723.558 632.367 723.423 632.632 723.254C632.886 723.118 633.118 722.994 633.33 722.88L635.108 721.929C635.594 721.669 636.351 721.277 637.377 720.755Z" fill="#6B367B"/>
<path d="M661.997 687.622C662.093 687.788 661.804 688.102 661.129 688.563C660.292 689.127 659.861 689.603 659.836 689.989C659.823 690.111 659.885 690.314 660.021 690.597L667.651 703.775C670.49 708.677 669.625 712.59 665.058 715.516C662.714 717.018 660.468 717.446 658.321 716.8C656.713 716.32 655.098 714.679 653.474 711.875L646.547 699.912C646.163 699.247 645.827 698.907 645.541 698.891C645.254 698.875 644.552 699.168 643.433 699.771C643.198 699.893 643.039 699.881 642.955 699.736C642.847 699.549 642.974 699.339 643.338 699.106C643.338 699.106 643.419 699.054 643.581 698.951C643.775 698.855 643.932 698.768 644.053 698.69L645.951 697.518C647.741 696.399 649.055 695.558 649.892 694.993C651.011 694.247 651.45 693.952 651.207 694.107L651.844 693.7C652.187 693.48 652.419 693.473 652.54 693.681C652.648 693.868 652.389 694.162 651.762 694.563C650.873 695.133 650.494 695.603 650.626 695.975C650.718 696.229 650.824 696.46 650.944 696.668L657.691 708.319C658.665 710.002 659.315 711.052 659.64 711.47C660.563 712.729 661.502 713.466 662.457 713.68C663.638 713.949 664.834 713.695 666.047 712.918C667.421 712.038 668.167 710.933 668.284 709.605C668.435 708 667.687 705.774 666.039 702.929L660.086 692.648C659.978 692.461 659.85 692.215 659.702 691.912C659.533 691.621 659.431 691.444 659.395 691.382C659.082 690.842 658.726 690.586 658.327 690.614C658.053 690.619 657.623 690.809 657.037 691.184C656.297 691.63 655.861 691.738 655.729 691.51C655.633 691.344 655.726 691.17 656.009 690.989C656.312 690.794 656.769 690.53 657.379 690.196C657.977 689.842 658.428 689.567 658.731 689.373C658.751 689.36 658.917 689.24 659.228 689.012C659.572 688.792 659.885 688.591 660.168 688.41L660.895 687.944C661.522 687.542 661.889 687.435 661.997 687.622Z" fill="#6B367B"/>
<path d="M688.096 676.332C688.203 676.491 688.19 676.621 688.056 676.722C687.845 676.88 687.39 676.637 686.692 675.992C685.309 674.722 684.122 674.039 683.13 673.944C682.139 673.849 680.971 674.306 679.627 675.314C679.109 675.703 678.672 676.062 678.315 676.389L690.631 694.482C690.987 694.964 691.337 695.181 691.68 695.132C692.024 695.084 692.777 694.699 693.938 693.977C694.163 693.839 694.329 693.849 694.437 694.008C694.572 694.206 694.486 694.421 694.178 694.651C694.121 694.695 693.97 694.793 693.726 694.946C693.425 695.142 693.178 695.312 692.986 695.456L689.96 697.593L685.126 701.356C684.857 701.557 684.669 701.579 684.561 701.42C684.48 701.301 684.471 701.202 684.535 701.125C684.598 701.047 684.901 700.79 685.444 700.352C686.473 699.52 686.864 698.837 686.618 698.303C686.481 698.016 685.133 695.985 682.573 692.211L674.024 679.609C673.8 679.748 673.544 679.925 673.256 680.141C671.72 681.294 670.799 682.435 670.493 683.563C670.193 684.658 670.442 686.029 671.242 687.677C671.7 688.652 671.824 689.219 671.613 689.377C671.44 689.507 671.273 689.453 671.111 689.214C671.003 689.055 670.671 688.48 670.115 687.489C668.948 685.428 668.141 684.025 667.694 683.281L668.126 682.957L670.208 681.35C670.266 681.306 670.941 680.829 672.235 679.918C673.548 678.993 675.193 677.788 677.17 676.304C678.265 675.483 679.237 674.738 680.087 674.07C680.937 673.402 681.718 672.801 682.428 672.268C683.061 671.793 683.528 671.413 683.827 671.128C684.76 672.376 686.023 673.917 687.614 675.75C687.881 676.059 688.042 676.253 688.096 676.332Z" fill="#6B367B"/>
<path d="M703.784 654.709C703.888 654.841 703.829 655.019 703.608 655.242C702.582 656.225 702.041 656.915 701.986 657.312C701.816 657.522 702.229 659.528 703.224 663.327C703.443 664.152 703.743 665.351 704.122 666.925C704.522 668.798 704.831 669.989 705.047 670.499C705.249 670.99 705.772 671.775 706.615 672.852L711.102 678.527C711.353 678.848 711.65 678.955 711.993 678.849C712.339 678.708 712.91 678.309 713.704 677.652C714.104 677.307 714.377 677.228 714.525 677.417C714.643 677.569 714.53 677.793 714.186 678.092C714.113 678.155 713.897 678.326 713.537 678.606C713.12 678.967 712.532 679.46 711.773 680.085L709.574 681.942C709.52 681.989 709.291 682.203 708.889 682.583C708.395 683.042 707.949 683.444 707.55 683.79L705.858 685.303C705.567 685.554 705.363 685.604 705.245 685.453C705.126 685.302 705.194 685.116 705.448 684.896C706.722 683.762 707.333 683.027 707.283 682.69C707.306 682.448 707.133 682.09 706.763 681.618L701.505 674.899C699.873 673.902 697.46 672.725 694.267 671.368C692.839 670.671 690.963 669.869 688.641 668.963C688.12 668.843 687.543 669.057 686.908 669.607L686.608 669.866C686.551 669.948 686.467 670.036 686.358 670.13C685.996 670.445 685.733 670.498 685.57 670.29C685.437 670.12 685.561 669.87 685.942 669.54C685.888 669.587 685.977 669.526 686.209 669.356C686.423 669.202 686.776 668.913 687.265 668.489L690.499 665.737C690.626 665.627 690.826 665.454 691.098 665.218C691.41 664.916 691.801 664.561 692.273 664.153L693.879 662.763C694.06 662.605 694.243 662.431 694.428 662.239C694.628 662.067 694.718 661.988 694.7 662.004C695.063 661.689 695.304 661.608 695.422 661.759C695.511 661.873 695.517 661.978 695.441 662.075C695.383 662.157 695.081 662.451 694.533 662.957C693.565 663.859 693.243 664.518 693.569 664.933C693.805 665.236 694.113 665.493 694.491 665.704C694.855 665.896 695.999 666.444 697.923 667.346C699.593 668.12 701.568 669.01 703.848 670.016C703.596 668.49 703.049 666.079 702.204 662.783C701.579 660.312 701.141 658.916 700.89 658.594C700.564 658.179 700.138 658.198 699.612 658.654C698.829 659.364 698.363 659.625 698.215 659.436C698.052 659.228 698.151 658.984 698.51 658.705L699.295 658.073C699.817 657.652 700.687 656.915 701.902 655.863L702.936 654.967C703.354 654.606 703.636 654.52 703.784 654.709Z" fill="#6B367B"/>
<defs>
<linearGradient id="paint0_linear_52_828" x1="462.5" y1="201.084" x2="462.5" y2="372.236" gradientUnits="userSpaceOnUse">
<stop stop-color="#361B3E"/>
<stop offset="1" stop-color="#6F387F"/>
</linearGradient>
<linearGradient id="paint1_linear_52_828" x1="462.5" y1="201.084" x2="462.5" y2="372.236" gradientUnits="userSpaceOnUse">
<stop stop-color="#361B3E"/>
<stop offset="1" stop-color="#6F387F"/>
</linearGradient>
<linearGradient id="paint2_linear_52_828" x1="460.121" y1="170.32" x2="460.121" y2="624.823" gradientUnits="userSpaceOnUse">
<stop stop-color="#763687"/>
<stop offset="0.635838" stop-color="#9256A1"/>
<stop offset="1" stop-color="#CAA5C7"/>
</linearGradient>
<linearGradient id="paint3_linear_52_828" x1="494.373" y1="0" x2="494.373" y2="701" gradientUnits="userSpaceOnUse">
<stop stop-color="#9B9B9B"/>
<stop offset="0.650016" stop-color="#9A9A9A"/>
<stop offset="0.804681" stop-color="#B393B8"/>
<stop offset="0.877864" stop-color="#B78ABA" stop-opacity="0.71"/>
<stop offset="1" stop-color="#C6C6C6" stop-opacity="0"/>
</linearGradient>
<linearGradient id="paint4_linear_52_828" x1="452.308" y1="396.702" x2="452.308" y2="722.275" gradientUnits="userSpaceOnUse">
<stop stop-color="#6D3A7E"/>
<stop offset="0.488247" stop-color="#A16FAA"/>
<stop offset="1" stop-color="#D3B6D1"/>
</linearGradient>
</defs>
</svg>
