<svg width="708" height="490" viewBox="0 0 708 490" fill="none" xmlns="http://www.w3.org/2000/svg">
<path d="M307.068 170.858C305.47 170.63 303.117 170.22 301.837 169.949L299.512 169.456L298.5 116.898C298.856 88.4338 301.073 64.0906 301.399 61.8187C301.76 59.2957 302.602 57.4391 303.561 57.0485C305.741 56.1609 343.774 55.7456 347.014 56.574C349.14 57.1177 349.783 57.9547 350.322 60.8853C350.69 62.8854 353.121 88.0911 353.5 116.898L352.37 169.274L350.049 169.867C347.185 170.598 311.069 171.431 307.068 170.858ZM315.644 51.3494L310.667 51.013L310.081 46.1992C309.758 43.5516 309.824 39.3031 310.228 36.758L310.962 32.1307L318.036 31.3935C321.926 30.988 328.669 30.988 333.02 31.3935L340.93 32.1307L341.664 36.758C342.067 39.3031 342.138 43.5141 341.821 46.1159L341.245 50.8464L333.933 51.4373C326.722 52.02 325.478 52.0141 315.644 51.3494ZM316.349 18.9429C316.396 14.4891 316.723 8.77879 317.075 6.25329C317.681 1.91941 317.907 1.62318 321.105 0.979532C325.055 0.184487 331.055 0.897779 333.235 2.42164C334.42 3.25038 334.885 6.08504 335.338 15.2629L335.92 27.0407H326.092H316.264L316.349 18.9429ZM332.238 9.45691C332.238 6.81877 329.182 5.70018 328.259 8.00033C327.378 10.1945 328.624 12.4105 330.541 12.0577C331.612 11.8604 332.238 10.902 332.238 9.45691Z" fill="url(#paint0_linear_80_887)"/>
<path d="M257.211 422.465C248.793 420.216 246.831 413.508 249.966 397.688C255.058 371.993 268.716 345.485 289.702 320.57C302.136 305.807 322.833 286.406 344.372 269.322V269.322C345.8 268.189 345 265.891 343.177 265.889L325.461 265.878L306.637 265.867C305.145 265.866 304.469 267.732 305.616 268.687V268.687C314.453 276.05 319.169 280.622 319.169 281.828C319.169 283.719 304.526 295.551 302.582 295.23C299.975 294.8 282.722 279.914 275.157 271.568C266.232 261.722 259.727 251.382 255.999 241.118C253.257 233.568 253.035 232.018 253.043 220.462C253.05 210.231 253.444 206.711 255.217 201.027C260.283 184.785 270.715 169.189 288.432 151.368L296.998 142.752C297.557 142.19 297.871 141.43 297.871 140.637V131.342C297.871 121.118 297.803 120.78 295.544 119.796C292.843 118.619 280.58 104.185 274.206 94.6793C268.118 85.5985 258.963 67.8887 255.505 58.4993C249.845 43.136 245.229 17.3334 246.657 9.04712C248.075 0.820154 258.582 -2.80089 264.936 2.74726C267.193 4.71808 268.125 6.64948 269.066 11.3078L269.808 14.9816C270.084 16.352 271.271 17.3496 272.669 17.3867L287.706 17.786L303.869 18.2152C304.656 18.2361 305.379 18.6552 305.788 19.3281V19.3281C306.227 20.0508 306.231 20.9675 305.809 21.7004V21.7004C305.393 22.4222 304.621 22.8836 303.788 22.8958L287.948 23.1288C267.987 23.4223 269.568 22.1505 272.643 35.4398C276.199 50.8112 282.716 65.3698 293.52 82.0789L299.326 91.0594C299.64 91.5447 299.807 92.1104 299.807 92.6883V130.711C299.807 163.375 300.027 169.7 301.175 170.122C302.161 170.483 301.328 171.83 298.187 174.951C289.901 183.185 287.403 182.518 326.545 182.518H358.337C359.415 182.518 359.993 181.25 359.285 180.436V180.436C358.289 179.291 355.735 176.584 353.609 174.42C351.484 172.257 350.271 170.487 350.914 170.487C351.81 170.487 352.084 161.196 352.084 130.778V92.0196C352.084 91.4003 352.275 90.7963 352.632 90.2903L358.509 81.9594C362.043 76.9498 366.782 69.1029 369.041 64.5218C374.217 54.024 380.017 36.9357 380.783 29.9215L381.041 27.5625C381.223 25.9046 380.017 24.4171 378.357 24.2513L375.298 23.9456C371.958 23.6118 364.55 23.3388 358.837 23.3388C348.117 23.3388 345.325 22.4137 346.583 19.2788C347.001 18.2389 350.594 17.9053 364.153 17.6474C383.231 17.2846 382.514 17.5591 383.571 10.2127C384.342 4.85474 386.973 1.41802 391.11 0.365508C395.134 -0.658286 399.195 0.484334 402.593 3.59628C405.179 5.96438 405.328 6.53445 405.323 14.0259C405.299 47.2153 388.921 85.4133 362.124 114.778L356.74 120.678C356.236 121.231 355.956 121.952 355.956 122.701V133.919C355.956 145.416 356.092 146.342 357.859 146.878C360.331 147.628 373.11 160.692 380.05 169.565C395.209 188.942 402.073 210.607 399.094 229.67C397.745 238.301 393.44 249.07 387.739 258.071C380.768 269.077 365.446 283.755 336.992 306.686C327.58 314.271 314.328 326.647 314.328 327.852C314.328 328.373 319.34 328.741 326.429 328.741C333.085 328.741 338.53 328.484 338.53 328.169C338.53 327.855 337.215 326.166 335.608 324.416C332.019 320.508 332.177 320.188 341.505 312.487L346.649 308.24C347.804 307.287 349.485 307.331 350.588 308.344L352.418 310.024C357.496 314.686 370.447 329.381 375.687 336.426C388.474 353.62 399.57 381.505 402.494 403.798C404.056 415.708 401.595 420.949 393.981 421.925C390.919 422.318 389.682 421.967 387.255 420.015C385.62 418.699 383.735 416.362 383.067 414.82L382.64 413.834C382.162 412.732 381.075 412.021 379.874 412.026L325.644 412.257L271.72 412.486C270.37 412.491 269.191 413.398 268.837 414.701L268.662 415.347C268.237 416.915 267.072 418.906 266.072 419.771C263.95 421.607 259.295 423.022 257.211 422.465ZM379.625 403.492C379.248 401.849 378.432 398.829 377.812 396.782L377.33 395.191C376.947 393.926 375.781 393.061 374.459 393.061H325.933H277.249C276.004 393.061 274.889 393.829 274.445 394.992L273.594 397.225C272.721 399.516 271.719 402.535 271.367 403.935V403.935C271.043 405.227 272.02 406.48 273.352 406.48H325.52H377.246C378.815 406.48 379.977 405.021 379.625 403.492V403.492ZM375.304 385.888C375.287 384.495 372.695 377.247 371.363 374.867C370.458 373.251 368.171 373.163 326.998 373.163C293.404 373.163 283.379 373.425 282.669 374.32C281.583 375.69 277.541 385.087 277.541 386.243C277.541 386.685 299.498 387.045 326.429 387.045C364.902 387.045 375.315 386.799 375.304 385.888ZM366.605 366.571C366.605 365.999 365.194 363.079 363.471 360.081L361.208 356.148C360.669 355.21 359.668 354.636 358.586 354.643L326.441 354.874L294.288 355.104C293.211 355.112 292.221 355.696 291.694 356.635L289.427 360.67C287.712 363.724 286.296 366.535 286.281 366.916C286.266 367.298 304.333 367.611 326.429 367.611C355.504 367.611 366.605 367.323 366.605 366.571ZM354.578 347.951C355.253 347.306 350.609 340.679 346.791 336.839L345.14 335.179C344.577 334.612 343.812 334.294 343.013 334.294H326.075C308.434 334.294 307.831 334.356 305.957 336.376C302.008 340.632 297.03 348.062 297.934 348.35C299.682 348.907 353.978 348.524 354.578 347.951ZM361.457 254C364.288 250.813 366.605 247.794 366.605 247.29C366.605 246.701 352.107 246.375 325.945 246.375C303.583 246.375 285.286 246.71 285.286 247.12C285.286 247.53 287.696 250.66 290.643 254.075L295.093 259.232C295.668 259.899 296.508 260.279 297.389 260.272L326.155 260.039L354.977 259.805C355.825 259.798 356.632 259.432 357.195 258.798L361.457 254ZM372.552 237.578C373.486 236.049 374.547 233.03 374.908 230.869L374.981 230.435C375.286 228.606 373.876 226.94 372.022 226.94H326.172H280.355C278.528 226.94 277.179 228.644 277.597 230.422V230.422C278.047 232.337 279.098 235.464 279.931 237.372L280.657 239.032C281.137 240.129 282.224 240.837 283.422 240.83L326.15 240.6L369.181 240.369C370.22 240.363 371.183 239.82 371.725 238.932L372.552 237.578ZM375.974 215.334C375.649 212.005 375.125 208.882 374.809 208.393C374.455 207.846 355.872 207.506 326.348 207.506H280.497C279.268 207.506 278.163 208.255 277.709 209.397L277.517 209.88C276.998 211.185 276.573 214.309 276.573 216.821V218.388C276.573 220.044 277.916 221.388 279.573 221.388H326.569H373.258C375.031 221.388 376.416 219.86 376.244 218.096L375.974 215.334ZM372.404 200.796C372.392 199.246 367.152 190.583 365.374 189.172C364.306 188.325 354.505 188.109 325.409 188.292L288.503 188.523C287.478 188.53 286.528 189.059 285.982 189.926L283.656 193.624C277.937 202.713 274.032 201.953 326.429 201.953C362.576 201.953 372.411 201.705 372.404 200.796Z" fill="url(#paint1_linear_80_887)"/>
<path d="M457.605 487.915C447.719 485.486 436.712 479.398 427.675 471.362C423.291 467.464 421.891 466.909 420.285 468.433C419.04 469.615 399.393 477.11 392.586 479C389.572 479.837 386.401 480.263 385.541 479.947C381.616 478.508 382.033 472.859 386.146 471.742C387.378 471.408 391.575 470.055 395.472 468.737C402.138 466.482 402.521 466.203 401.946 464.014C401.61 462.734 401.335 458.987 401.335 455.686C401.335 450.738 401.897 448.615 404.542 443.584C408.131 436.755 410.581 435.533 413.885 438.924C416.459 441.565 417.29 446.714 416.444 454.771L415.755 461.323L425.22 456.431C434.503 451.633 447.73 443.697 451.062 440.926C452.64 439.614 452.495 439.262 448.8 435.429C435.491 421.627 436.514 398.403 451.696 369.652C454.367 364.593 455.064 363.909 457.543 363.909C461.072 363.909 465.666 368.802 470.65 377.868C477.859 390.984 478.98 408.246 473.399 420.206C472.608 421.901 472.206 423.523 472.506 423.81C472.806 424.097 476.41 421.193 480.515 417.357L487.978 410.383L486.344 405.549C484.33 399.587 484.237 390.848 486.14 386.493C487.412 383.582 487.915 383.255 490.717 383.515C494.883 383.901 496.296 386.72 496.314 394.68C496.322 398.116 496.723 400.927 497.206 400.927C497.688 400.927 499.64 398.949 501.543 396.531C503.447 394.113 506.776 389.942 508.941 387.26C512.785 382.501 513.169 380.567 510.27 380.567C508.251 380.567 501.231 377.047 497.78 374.304C493.013 370.515 488.686 363.947 486.389 357.014C484.526 351.391 484.247 348.635 484.37 337.07C484.556 319.714 486.282 310.229 489.539 308.676C491.535 307.725 492.48 307.863 495.761 309.587C500.903 312.29 509.634 320.588 513.966 326.89C519.857 335.46 521.811 342.352 521.903 354.882C521.978 365.196 522.945 368.247 524.45 362.923C524.801 361.684 526.01 358.74 527.139 356.381C529.752 350.917 533.934 338.703 534.292 335.488C534.524 333.409 534.11 332.928 531.663 332.43C525.722 331.221 521.062 327.691 516.41 320.875C511.172 313.2 512.24 307.49 518.684 308.722C525.068 309.943 530.142 312.86 533.278 317.114C534.994 319.441 536.722 321.031 537.116 320.647C537.511 320.263 538.101 315.304 538.428 309.627L539.021 299.304L533.842 297.038C516.866 289.608 510.185 271.661 514.638 245.45C517.011 231.48 519.925 223.853 523.054 223.424C527.717 222.785 541.436 236.564 545.904 246.375C549.102 253.397 550.754 263.561 550.079 272.057C549.745 276.256 549.675 279.692 549.922 279.692C550.17 279.692 552.687 278.234 555.517 276.453C561.543 272.659 566.138 272.189 568.304 275.145C570.017 277.483 569.238 280.678 565.43 286.942C560.925 294.35 558.391 296.986 551.454 301.476C544.849 305.751 544.733 305.896 544.733 309.891V313.955L549.941 309.9C559.238 302.66 571.604 298.15 589.297 295.546C595.437 294.642 601.02 294.08 601.702 294.298C602.385 294.515 603.331 295.67 603.806 296.865C604.785 299.326 601.916 308.239 598.219 314.218C597.021 316.156 596.041 318.154 596.041 318.659C596.041 319.163 592.869 322.608 588.992 326.315C578.044 336.781 563.097 342.723 546.811 343.083L538.725 343.261L536.839 348.602C535.802 351.539 535.126 354.108 535.337 354.31C535.548 354.511 537.674 353.851 540.061 352.841C542.448 351.832 546.763 350.748 549.65 350.433C554.164 349.94 555.202 350.135 557.076 351.83C559.275 353.82 559.82 356.142 558.513 357.954C555.631 361.952 536.487 370.343 530.175 370.375C528.176 370.385 527.051 371.498 524.125 376.361C522.148 379.647 520.53 382.498 520.53 382.697C520.53 382.895 522.6 382.549 525.129 381.927C535.099 379.476 565.346 380.819 570.629 383.947C573.608 385.711 573.363 388.245 569.72 393.357C559.544 407.635 544.169 416.236 526.823 417.354C518.081 417.918 503.51 416.201 500.377 414.239C497.961 412.725 497.883 412.762 492.994 417.692C490.277 420.433 485.777 424.67 482.994 427.109C480.212 429.547 477.935 431.733 477.935 431.967C477.935 432.201 481.964 432.402 486.89 432.413C504.42 432.453 512.165 439.912 500.452 445.475C496.759 447.229 494.307 447.662 488.1 447.656C481.192 447.65 479.591 447.292 473.29 444.346L466.225 441.042L460.705 445.127C457.669 447.374 455.073 449.497 454.936 449.845C454.799 450.193 457.195 451.025 460.26 451.693C470.542 453.933 489.747 465.146 499.096 474.367C503.574 478.784 502.696 480.903 495.02 484.203C481.933 489.829 470.149 490.998 457.605 487.915ZM481.807 481.876C488.994 480.29 493.424 478.734 493.424 477.798C493.424 477.444 489.394 474.311 484.469 470.836C466.292 458.011 451.301 453.673 440.862 458.219C438.357 459.31 436.307 460.531 436.307 460.932C436.307 461.843 451.93 465.616 457.023 465.936C464.304 466.392 463.979 472.188 456.673 472.188C453.635 472.188 445.989 470.578 436.549 467.951C432.457 466.812 434.358 469.157 440.905 473.325C449.453 478.765 451.021 479.513 458.013 481.489C465.319 483.554 473.601 483.688 481.807 481.876ZM455.487 421.211C455.653 416.926 455.352 411.561 454.817 409.287C453.741 404.714 454.613 402.778 457.747 402.778C460.663 402.778 461.73 406.977 461.686 418.28C461.663 424.006 461.973 428.691 462.375 428.691C463.314 428.691 467.895 417.539 469.347 411.718C470.02 409.02 470.25 403.801 469.925 398.6C469.445 390.904 468.949 389.107 465.381 382.125C463.178 377.814 460.538 373.563 459.515 372.678C457.727 371.131 457.615 371.172 456.645 373.735C456.09 375.202 454.816 377.86 453.814 379.642C447.629 390.642 444.578 408.774 447.368 417.948C449.176 423.892 452.714 429.755 454.217 429.296C454.749 429.134 455.321 425.495 455.487 421.211ZM528.759 410.752C540.241 409.606 548.613 405.685 557.531 397.278C561.141 393.874 564.094 390.439 564.094 389.643C564.094 388.51 562.254 387.998 555.624 387.284C538.791 385.471 522.753 387.515 515.3 392.423C511.037 395.23 505.617 401.249 506.145 402.589C506.556 403.633 519.235 400.165 525.374 397.33C530.617 394.908 531.807 394.888 533.104 397.204C533.911 398.646 533.737 399.408 532.281 400.8C530.116 402.869 521.221 406.218 513.996 407.682C508.589 408.779 507.529 409.849 511.092 410.614C513.537 411.139 521.464 411.669 522.951 411.406C523.483 411.312 526.097 411.018 528.759 410.752ZM507.696 371.081C507.445 370.445 506.493 367.425 505.58 364.371C504.666 361.317 502.807 356.429 501.448 353.508C499.428 349.164 499.199 347.941 500.192 346.798C503.045 343.512 505.638 345.898 509.232 355.117C510.621 358.68 512.047 363.381 512.401 365.564C513.303 371.122 515.09 369.963 515.779 363.373C516.931 352.356 515.059 342.237 510.149 332.945C507.847 328.588 495.458 315.785 493.543 315.785C492.043 315.785 491.426 319.601 490.851 332.443C489.995 351.544 492.476 360.293 501.016 368.298C505.01 372.042 508.678 373.57 507.696 371.081ZM557.802 335.637C564.877 334.478 576.81 328.463 583.121 322.876C587.606 318.904 590.079 315.671 593.126 309.79C596.662 302.966 597.516 299.071 595.171 300.457C594.767 300.696 591.42 301.345 587.736 301.9C573.296 304.073 558.037 310.511 551.669 317.115C548.375 320.531 543.765 328.166 543.765 330.206C543.765 332.051 556.316 324.771 562.069 319.591C565.819 316.214 569.248 316.025 569.716 319.17C570.106 321.786 564.031 327.38 555.804 331.98C549.561 335.47 547.668 337.708 551.751 336.771C552.949 336.496 555.672 335.986 557.802 335.637ZM533.494 285.939C533.196 284.284 532.057 279.599 530.963 275.527C528.217 265.301 528.2 262.647 530.882 262.282C532.397 262.076 533.406 262.737 534.41 264.596C536.445 268.36 538.143 274.711 538.819 281.08C539.143 284.134 539.844 286.619 540.376 286.602C541.964 286.551 543.572 277.953 543.672 268.986C543.784 258.864 542.109 252.782 536.93 244.498C533.022 238.248 525.873 230.78 524.789 231.816C523.186 233.348 520.377 250.546 520.22 259.794C520.009 272.168 521.792 278.279 527.462 284.62C532.119 289.829 534.279 290.301 533.494 285.939ZM169.116 485.696C166.72 485.103 163.017 483.867 160.887 482.949C158.757 482.032 156.046 480.916 154.863 480.469C151.272 479.113 150.988 475.312 154.232 472.016C163.067 463.038 183.395 451.194 194.044 448.821C196.839 448.198 199.126 447.437 199.126 447.13C199.126 446.823 196.523 444.639 193.341 442.277L187.555 437.982L184.321 439.806C179.076 442.765 170.126 445.349 165.128 445.349C162.569 445.349 158.049 444.482 155.084 443.421C140.306 438.135 147.536 429.475 166.89 429.279C171.848 429.229 175.792 428.972 175.656 428.708C175.52 428.444 170.814 423.964 165.198 418.752C156.336 410.526 154.803 409.449 153.581 410.588C151.636 412.401 143.674 413.616 132.418 413.816C115.15 414.122 103.378 409.97 91.728 399.464C81.5669 390.301 77.3315 381.96 81.7459 379.805C87.3278 377.082 115.976 375.794 126.136 377.81C129.094 378.398 131.736 378.665 132.008 378.406C132.279 378.146 131.021 375.507 129.211 372.541C126.815 368.614 125.278 367.071 123.558 366.867C117.959 366.2 105.24 361.464 99.6756 357.974C94.9499 355.01 93.644 353.691 93.6399 351.878C93.6334 349.059 94.4187 347.849 97.1423 346.478C99.6809 345.201 108.949 346.5 113.698 348.799C115.432 349.638 117.063 350.121 117.322 349.873C117.581 349.626 116.922 346.956 115.857 343.941L113.92 338.459L105.941 338.436C82.9776 338.37 62.4758 326.62 53.049 308.122C48.5101 299.215 47.1281 294.167 48.5152 291.561C49.5423 289.631 50.2734 289.425 55.6078 289.566C66.1455 289.845 83.7395 294.379 94.573 299.607C96.969 300.764 100.999 303.455 103.528 305.587L108.126 309.464V305.255C108.126 301.156 107.978 300.95 102.424 297.344C95.3225 292.734 89.8563 286.693 85.7937 278.964C83.2608 274.145 82.8309 272.535 83.5516 270.563C84.9571 266.718 89.8305 266.804 96.7512 270.794C99.8128 272.56 102.337 273.93 102.36 273.84C102.384 273.75 102.559 268.47 102.75 262.108C103.211 246.732 105.897 239.054 114.243 229.254C120.256 222.192 126.191 217.686 129.477 217.686C131.771 217.686 132.559 218.273 133.669 220.812C136.598 227.515 139.168 239.912 139.746 250.13C140.508 263.611 138.716 272.397 133.73 279.636C129.77 285.384 127.342 287.442 119.892 291.368L114.419 294.251L114.689 304.223C115.018 316.361 115.746 318.156 118.57 313.788C121.744 308.879 124.597 306.833 131.231 304.709C137.05 302.846 137.495 302.824 139.217 304.314C141.189 306.019 141.632 308.848 140.073 309.769C139.541 310.084 139.105 310.958 139.105 311.712C139.105 313.104 136.379 317.233 132.83 321.217C130.29 324.068 124.125 327.812 121.941 327.83C117.656 327.865 117.515 329.02 120.68 338.097C124.835 350.009 129.522 361.132 130.385 361.132C130.779 361.132 130.892 358.321 130.637 354.885C129.683 342.074 134.727 326.831 143.14 317.098C147.88 311.614 157.741 303.963 161.11 303.155C163.006 302.7 164.044 303.033 165.281 304.494C167.807 307.476 169.61 320.393 169.504 334.757C169.425 345.561 169.062 348.623 167.321 353.192C162.88 364.85 157.727 370.501 147.272 375.178C143.845 376.711 141.066 378.238 141.097 378.572C141.256 380.307 155.335 397.225 156.619 397.225C157.103 397.225 157.505 394.414 157.513 390.978C157.521 387.543 158.075 383.69 158.745 382.418C160.352 379.367 164.265 378.925 166.718 381.517C169.404 384.354 169.866 394.568 167.617 401.403L165.905 406.605L173.053 413.483C176.984 417.266 180.505 420.362 180.877 420.362C181.249 420.362 180.655 417.967 179.555 415.04C175.446 404.103 176.384 387.763 181.743 376.931C187.107 366.088 192.873 359.281 196.694 359.281C198.697 359.281 199.655 360.333 202.39 365.528C211.508 382.848 214.73 393.684 214.684 406.874C214.661 413.769 214.16 417.476 212.762 421.106C210.923 425.882 204.344 435.169 202.8 435.169C198.161 435.169 214.691 446.56 230.807 454.468L238.771 458.376L238.233 449.78C237.771 442.386 237.959 440.732 239.576 437.946C241.6 434.456 244.749 433.346 247.17 435.268C251.669 438.837 254.684 449.94 253.324 457.928C252.25 464.241 251.829 463.817 262.536 467.207C271.538 470.057 272.701 470.777 272.701 473.504C272.701 476.181 270.932 477.742 267.909 477.734C264.721 477.725 251.104 473.247 239.786 468.486L230.898 464.747L229.042 467.002C226.17 470.493 213.79 479.048 207.514 481.879C204.407 483.281 199.615 485.001 196.865 485.701C190.91 487.216 175.244 487.214 169.116 485.696ZM190.904 480.082C199.678 478.477 206.713 475.561 214.65 470.239C220.167 466.539 222.325 463.881 218.73 465.214C216.162 466.166 201.757 469.37 198.331 469.752C195.401 470.078 191.382 468.283 191.382 466.649C191.382 464.785 194.372 463.233 198.241 463.088C203.507 462.891 217.52 459.308 217.52 458.159C217.52 456.743 209.574 453.721 205.793 453.699C194.359 453.632 181.188 459.225 165.475 470.82C162.73 472.845 160.467 474.961 160.444 475.523C160.421 476.086 163.561 477.418 167.421 478.485C179.256 481.756 181.076 481.88 190.904 480.082ZM202.427 424.295C207.942 414.748 209.317 408.403 207.823 399.392C206.636 392.23 201.999 378.621 198.462 371.918C196.166 367.568 196.039 367.482 194.214 369.061C191.485 371.422 185.694 383.408 184.587 388.985C183.2 395.977 183.423 404.075 185.166 410.039C187.541 418.161 189.634 423.475 191.04 424.944C192.114 426.067 192.31 424.6 192.237 415.991C192.189 410.234 192.662 404.214 193.312 402.333C194.304 399.459 194.845 399.012 197.038 399.255L199.604 399.539L199.27 413.19C198.926 427.297 199.509 429.347 202.427 424.295ZM144.203 406.79C145.717 405.897 143.846 404.825 139.747 404.237C135.074 403.567 126.522 400.654 122.406 398.33C119.455 396.664 118.756 392.902 121.23 391.995C122.047 391.695 125.206 392.508 128.248 393.801C131.291 395.094 136.394 396.867 139.589 397.74C142.784 398.613 145.942 399.524 146.608 399.764C149.276 400.725 147.562 397.38 143.239 393.189C136.059 386.227 128.547 383.581 114.34 383.008C104.872 382.627 89.8314 383.804 88.552 385.027C87.4577 386.073 92.6405 392.173 98.7633 397.044C105.864 402.693 114.052 406.251 122.647 407.422C127.787 408.121 142.686 407.685 144.203 406.79ZM150.474 366.113C158.482 360.274 162.958 348.877 163.093 333.978C163.183 324.008 161.419 311.143 159.968 311.191C158.404 311.242 149.45 319.471 146.096 323.94C144.448 326.135 141.875 330.924 140.377 334.583C137.916 340.592 137.654 342.327 137.662 352.534C137.672 365.388 139.026 368.893 140.904 360.932C143.624 349.405 148.017 340.772 151.162 340.772C154.197 340.772 154.646 344.024 152.264 348.756C150.439 352.383 145.882 366.182 145.882 368.084C145.882 369.043 147.276 368.445 150.474 366.113ZM103.286 331.53C103.286 331.028 101.87 330.042 100.139 329.339C95.0556 327.275 85.0989 319.777 83.489 316.801C82.1484 314.322 82.151 313.91 83.5163 312.605C85.5357 310.674 85.783 310.729 89.2024 313.854C93.0898 317.407 106.201 325.965 107.756 325.965C110.121 325.965 106.135 317.727 101.346 312.718C96.054 307.183 86.1287 301.969 76.1794 299.498C66.625 297.126 56.4196 295.508 55.6146 296.239C54.3726 297.367 63.4072 313.384 67.2256 316.824C75.6853 324.446 83.7321 328.499 95.5411 331.087C102.381 332.586 103.286 332.637 103.286 331.53ZM124.871 280.035C133.029 272.006 135.397 255.239 131.042 236.352C129.712 230.585 128.411 225.664 128.152 225.416C127.301 224.602 118.745 233.777 115.801 238.661C110.999 246.625 109.094 253.202 109.094 261.814C109.094 270.693 111.003 281.704 112.463 281.244C113.006 281.072 113.708 278.466 114.022 275.453C114.649 269.434 117.42 259.532 118.985 257.712C120.355 256.119 124.256 256.256 124.925 257.921C125.226 258.672 124.831 260.755 124.046 262.549C123.262 264.344 121.974 268.831 121.185 272.521C120.395 276.21 119.522 280.166 119.244 281.311C118.477 284.469 120.931 283.913 124.871 280.035Z" fill="#964911"/>
<path d="M45.216 188.088C45.216 193.912 43.136 198.744 38.976 202.584C34.88 206.36 29.632 208.248 23.232 208.248C19.328 208.248 13.952 206.936 7.104 204.312C6.592 204.12 6.144 204.024 5.76 204.024C4.672 204.024 3.84 205.176 3.264 207.48C3.072 208.184 2.816 208.536 2.496 208.536C1.984 208.536 1.728 208.088 1.728 207.192C1.728 206.36 1.888 204.888 2.208 202.776C2.464 201.048 2.592 199.032 2.592 196.728C2.592 194.872 2.56 193.4 2.496 192.312C2.368 190.136 2.304 188.856 2.304 188.472C2.304 187.448 2.624 186.936 3.264 186.936C3.904 186.936 4.48 188.312 4.992 191.064C5.888 195.8 7.904 199.48 11.04 202.104C14.432 204.92 18.08 206.328 21.984 206.328C25.44 206.328 28.352 205.24 30.72 203.064C33.088 200.888 34.272 198.232 34.272 195.096C34.272 192.408 33.504 190.264 31.968 188.664C30.816 187.512 27.104 185.24 20.832 181.848C13.856 178.136 9.12 174.424 6.624 170.712C4.32 167.32 3.168 163.288 3.168 158.616C3.168 153.112 5.12 148.568 9.024 144.984C12.928 141.336 17.856 139.512 23.808 139.512C27.008 139.512 30.432 140.28 34.08 141.816C35.296 142.328 36.16 142.584 36.672 142.584C37.632 142.584 38.272 141.752 38.592 140.088C38.72 139.512 39.008 139.224 39.456 139.224C40.096 139.224 40.416 139.64 40.416 140.472C40.416 140.792 40.352 141.688 40.224 143.16C40.096 144.632 40.032 145.848 40.032 146.808C40.032 150.136 40.16 152.952 40.416 155.256C40.48 155.448 40.512 155.704 40.512 156.024C40.512 156.6 40.256 156.888 39.744 156.888C39.168 156.888 38.592 155.864 38.016 153.816C37.44 151.768 36.416 149.752 34.944 147.768C33.536 145.72 32.096 144.248 30.624 143.352C28.704 142.2 26.464 141.624 23.904 141.624C20.32 141.624 17.472 142.488 15.36 144.216C13.248 145.944 12.192 148.312 12.192 151.32C12.192 153.944 13.184 156.28 15.168 158.328C17.152 160.312 20.96 162.872 26.592 166.008C33.504 169.848 38.08 172.92 40.32 175.224C43.584 178.616 45.216 182.904 45.216 188.088ZM128.649 206.136C128.649 206.776 127.465 207.096 125.097 207.096C123.049 207.096 120.073 207.064 116.169 207C113.289 206.936 111.305 206.936 110.217 207L104.841 207.192L100.521 207.288C99.113 207.288 98.409 207 98.409 206.424C98.409 205.976 98.569 205.72 98.889 205.656C99.273 205.592 100.425 205.528 102.345 205.464C103.369 205.464 103.881 205.144 103.881 204.504C103.881 204.248 102.121 201.656 98.601 196.728L84.489 176.952C83.657 176.12 83.049 175.448 82.665 174.936V199.32C82.665 202.2 82.889 203.928 83.337 204.504C83.849 205.016 85.481 205.336 88.233 205.464C89.833 205.528 90.633 205.848 90.633 206.424C90.633 207 90.057 207.288 88.905 207.288L82.857 207.192C78.825 207.128 74.697 207.096 70.473 207.096C69.833 207.096 68.841 207.128 67.497 207.192C66.217 207.256 64.841 207.288 63.369 207.288H62.121C61.097 207.288 60.585 207 60.585 206.424C60.585 205.848 61.641 205.528 63.753 205.464C65.929 205.4 67.241 205.112 67.689 204.6C68.201 204.088 68.457 202.68 68.457 200.376V144.984C68.457 144.088 68.233 143.48 67.785 143.16C67.145 142.776 65.769 142.584 63.657 142.584C61.801 142.584 60.873 142.296 60.873 141.72C60.873 141.208 61.321 140.952 62.217 140.952L73.833 141.144C73.961 141.144 74.345 141.144 74.985 141.144C75.689 141.08 76.329 141.048 76.905 141.048L82.857 140.952H86.793C87.497 140.888 88.265 140.856 89.097 140.856C89.865 140.856 90.249 141.144 90.249 141.72C90.249 142.168 89.481 142.424 87.945 142.488C85.385 142.616 83.849 142.872 83.337 143.256C82.889 143.576 82.665 144.696 82.665 146.616V171.96C84.393 170.552 90.217 164.248 100.137 153.048C104.553 148.056 106.761 144.888 106.761 143.544C106.761 143.096 106.473 142.84 105.897 142.776C105.321 142.648 103.689 142.584 101.001 142.584C100.105 142.584 99.657 142.296 99.657 141.72C99.657 141.08 100.425 140.792 101.961 140.856L106.185 140.952C106.313 140.952 106.601 140.952 107.049 140.952C107.625 140.888 108.137 140.856 108.585 140.856H118.473C119.369 140.856 119.817 141.144 119.817 141.72C119.817 142.36 119.305 142.68 118.281 142.68C115.913 142.68 114.281 142.84 113.385 143.16C112.553 143.48 111.529 144.248 110.313 145.464C104.361 151.672 98.153 158.552 91.689 166.104C92.777 167.64 95.849 171.64 100.905 178.104C104.425 182.52 109.449 188.952 115.977 197.4C118.857 201.24 120.745 203.544 121.641 204.312C122.537 205.016 123.849 205.368 125.577 205.368C127.625 205.368 128.649 205.624 128.649 206.136ZM169.202 206.328C169.202 206.84 168.786 207.096 167.954 207.096C167.506 207.096 167.09 207.064 166.706 207C162.866 206.808 159.57 206.712 156.818 206.712C153.938 206.712 149.714 206.808 144.146 207C142.29 207.064 140.914 207.096 140.018 207.096C139.058 207.096 138.578 206.808 138.578 206.232C138.578 205.912 138.738 205.72 139.058 205.656C139.442 205.592 140.69 205.528 142.802 205.464C144.786 205.08 145.938 204.504 146.258 203.736C146.578 202.904 146.738 200.312 146.738 195.96V149.784C146.738 148.568 146.738 147.384 146.738 146.232C146.674 145.08 146.642 144.536 146.642 144.6C146.642 143 145.042 142.2 141.842 142.2C140.05 142.2 139.154 141.976 139.154 141.528C139.154 141.08 139.282 140.824 139.538 140.76C139.794 140.696 140.626 140.664 142.034 140.664C141.394 140.664 142.546 140.696 145.49 140.76C148.434 140.824 150.962 140.856 153.074 140.856H157.97C158.994 140.856 160.434 140.824 162.29 140.76C164.21 140.632 165.554 140.568 166.322 140.568H167.282C168.114 140.568 168.53 140.824 168.53 141.336C168.53 141.72 168.37 141.976 168.05 142.104C167.794 142.168 166.834 142.232 165.17 142.296C163.186 142.424 161.97 142.84 161.522 143.544L161.234 145.368V199.608C161.234 202.36 161.522 203.992 162.098 204.504C162.738 205.016 164.818 205.368 168.338 205.56C168.914 205.624 169.202 205.88 169.202 206.328ZM246.188 141.624C246.188 141.944 245.932 142.136 245.42 142.2C244.972 142.264 243.276 142.36 240.332 142.488C238.604 142.552 237.612 142.904 237.356 143.544C237.1 143.928 237.004 145.976 237.068 149.688L237.164 160.824C237.228 168.248 237.26 177.944 237.26 189.912V206.232C237.26 207.32 237.036 207.864 236.588 207.864C235.884 207.864 231.212 202.584 222.572 192.024C213.996 181.4 204.556 169.272 194.252 155.64V162.744C194.252 165.176 194.284 167.288 194.348 169.08C194.348 170.872 194.348 171.96 194.348 172.344V202.2C194.348 203.544 194.764 204.376 195.596 204.696C196.94 205.208 198.508 205.464 200.3 205.464C202.412 205.464 203.596 205.624 203.852 205.944C203.916 206.008 203.948 206.136 203.948 206.328C203.948 206.84 203.468 207.096 202.508 207.096C201.932 207.096 201.452 207.064 201.068 207C197.228 206.872 194.828 206.808 193.868 206.808C191.628 206.808 188.684 206.872 185.036 207C183.244 207.064 182.476 207.096 182.732 207.096C181.772 207.096 181.292 206.84 181.292 206.328C181.292 205.88 182.7 205.56 185.516 205.368C188.78 205.112 190.668 204.6 191.18 203.832C191.5 203.32 191.66 201.016 191.66 196.92V157.464C191.66 153.432 191.596 151 191.468 150.168C191.084 147.352 189.964 145.304 188.108 144.024C186.7 143.064 184.076 142.52 180.236 142.392C179.212 142.328 178.7 142.04 178.7 141.528C178.7 140.952 179.148 140.664 180.044 140.664C180.428 140.664 181.804 140.728 184.172 140.856C185.324 140.92 187.052 140.952 189.356 140.952C194.092 140.952 197.932 140.888 200.876 140.76L234.572 184.056V146.04C234.572 144.504 234.316 143.544 233.804 143.16C233.292 142.712 232.204 142.456 230.54 142.392L226.412 142.2C225.644 142.136 225.26 141.912 225.26 141.528C225.26 141.016 225.836 140.76 226.988 140.76H229.1C229.484 140.76 230.124 140.728 231.02 140.664C231.852 140.664 232.588 140.664 233.228 140.664C239.692 140.664 243.468 140.696 244.556 140.76C245.644 140.824 246.188 141.112 246.188 141.624Z" fill="#964911"/>
<path d="M462.832 158.424C462.832 158.936 462.608 159.192 462.16 159.192C461.456 159.192 460.816 157.944 460.24 155.448C459.088 150.52 457.488 147.16 455.44 145.368C453.392 143.576 450.128 142.68 445.648 142.68C443.92 142.68 442.416 142.744 441.136 142.872L441.232 201.24C441.296 202.84 441.744 203.864 442.576 204.312C443.408 204.76 445.648 205.144 449.296 205.464C450 205.528 450.352 205.816 450.352 206.328C450.352 206.968 449.84 207.288 448.816 207.288C448.624 207.288 448.144 207.256 447.376 207.192C446.416 207.128 445.616 207.096 444.976 207.096L435.088 206.808L418.768 207.096C417.872 207.096 417.424 206.84 417.424 206.328C417.424 205.944 417.552 205.72 417.808 205.656C418.064 205.592 419.12 205.528 420.976 205.464C424.496 205.336 426.384 204.504 426.64 202.968C426.768 202.136 426.832 195.64 426.832 183.48V142.872C426.128 142.808 425.296 142.776 424.336 142.776C419.216 142.776 415.472 143.736 413.104 145.656C410.8 147.512 409.296 150.84 408.592 155.64C408.144 158.456 407.568 159.864 406.864 159.864C406.288 159.864 406 159.48 406 158.712C406 158.2 406.128 156.44 406.384 153.432C406.896 147.16 407.216 142.872 407.344 140.568H408.784L415.792 140.472C415.984 140.472 418.192 140.536 422.416 140.664C426.704 140.792 432.144 140.856 438.736 140.856C442.384 140.856 445.648 140.824 448.528 140.76C451.408 140.696 454.032 140.664 456.4 140.664C458.512 140.664 460.112 140.6 461.2 140.472C461.392 144.632 461.872 149.944 462.64 156.408C462.768 157.496 462.832 158.168 462.832 158.424ZM529.066 190.2C529.066 190.328 529.034 193.304 528.97 199.128C528.906 202.2 528.842 204.408 528.778 205.752C528.778 207.096 528.778 207.736 528.778 207.672C511.882 206.904 497.098 206.68 484.426 207L476.362 207.192C475.21 207.192 474.634 206.936 474.634 206.424C474.634 206.04 474.762 205.816 475.018 205.752C475.338 205.688 476.33 205.592 477.994 205.464C481.002 205.272 482.634 204.408 482.89 202.872C483.018 202.04 483.082 201.112 483.082 200.088V151.416C483.082 147.576 483.05 145.464 482.986 145.08C482.922 144.056 482.602 143.352 482.026 142.968C481.45 142.584 480.266 142.392 478.474 142.392C476.49 142.392 475.498 142.104 475.498 141.528C475.498 140.888 476.362 140.568 478.09 140.568C479.882 140.568 482.346 140.536 485.482 140.472C497.258 140.216 506.89 140.152 514.378 140.28L520.906 140.376C522.314 140.376 524.042 140.248 526.09 139.992L526.954 150.456C527.274 153.784 527.434 155.832 527.434 156.6C527.434 157.24 527.114 157.56 526.474 157.56C525.834 157.56 525.418 156.728 525.226 155.064C524.65 150.648 522.858 147.448 519.85 145.464C516.906 143.416 512.522 142.392 506.698 142.392C504.906 142.392 501.834 142.488 497.482 142.68V171C504.522 171.064 508.938 170.584 510.73 169.56C512.586 168.472 513.834 165.72 514.474 161.304C514.794 158.936 515.274 157.752 515.914 157.752C516.49 157.752 516.778 158.328 516.778 159.48C516.778 160.632 516.682 163 516.49 166.584C516.426 167.8 516.394 169.432 516.394 171.48C516.394 176.984 516.458 181.144 516.586 183.96C516.65 184.344 516.682 184.824 516.682 185.4C516.682 186.168 516.394 186.552 515.818 186.552C515.37 186.552 515.082 186.424 514.954 186.168C514.826 185.848 514.634 184.792 514.378 183C513.738 178.456 512.842 175.64 511.69 174.552C510.602 173.4 508.042 172.824 504.01 172.824H497.482V205.176L503.626 205.08C510.666 204.952 514.954 204.792 516.49 204.6C518.41 204.344 520.266 203.64 522.058 202.488C523.658 201.208 524.746 199.832 525.322 198.36C525.962 196.888 526.634 194.168 527.338 190.2C527.53 189.24 527.85 188.76 528.298 188.76C528.81 188.76 529.066 189.24 529.066 190.2ZM596.816 190.776C596.816 191.992 596.784 193.016 596.72 193.848C596.464 196.664 596.368 198.936 596.432 200.664L596.528 207.48C588.336 207.16 573.52 207 552.08 207H548.048C545.232 207 543.824 206.744 543.824 206.232C543.824 205.72 544.272 205.464 545.168 205.464C548.368 205.4 550.416 204.952 551.312 204.12C551.888 203.608 552.176 202.072 552.176 199.512L552.08 147.48C552.08 145.304 551.888 143.96 551.504 143.448C550.736 142.488 549.552 142.04 547.952 142.104L545.552 142.2C544.848 142.2 544.496 141.944 544.496 141.432C544.496 140.92 544.944 140.664 545.84 140.664C546.352 140.664 546.864 140.696 547.376 140.76H571.76C572.08 140.696 572.432 140.664 572.816 140.664C573.456 140.664 573.776 140.92 573.776 141.432C573.776 142.008 572.944 142.296 571.28 142.296C568.912 142.296 567.504 142.584 567.056 143.16C566.672 143.736 566.48 146.264 566.48 150.744V173.592C566.48 178.264 566.608 188.728 566.864 204.984C568.08 205.048 569.456 205.08 570.992 205.08C577.712 205.08 582.352 204.824 584.912 204.312C588.944 203.48 591.696 201.432 593.168 198.168C593.936 196.504 594.64 193.848 595.28 190.2C595.472 189.176 595.76 188.664 596.144 188.664C596.592 188.664 596.816 189.368 596.816 190.776ZM663.003 190.776C663.003 191.992 662.971 193.016 662.907 193.848C662.651 196.664 662.555 198.936 662.619 200.664L662.715 207.48C654.523 207.16 639.707 207 618.267 207H614.235C611.419 207 610.011 206.744 610.011 206.232C610.011 205.72 610.459 205.464 611.355 205.464C614.555 205.4 616.603 204.952 617.499 204.12C618.075 203.608 618.363 202.072 618.363 199.512L618.267 147.48C618.267 145.304 618.075 143.96 617.691 143.448C616.923 142.488 615.739 142.04 614.139 142.104L611.739 142.2C611.035 142.2 610.683 141.944 610.683 141.432C610.683 140.92 611.131 140.664 612.027 140.664C612.539 140.664 613.051 140.696 613.563 140.76H637.947C638.267 140.696 638.619 140.664 639.003 140.664C639.643 140.664 639.963 140.92 639.963 141.432C639.963 142.008 639.131 142.296 637.467 142.296C635.099 142.296 633.691 142.584 633.243 143.16C632.859 143.736 632.667 146.264 632.667 150.744V173.592C632.667 178.264 632.795 188.728 633.051 204.984C634.267 205.048 635.643 205.08 637.179 205.08C643.899 205.08 648.539 204.824 651.099 204.312C655.131 203.48 657.883 201.432 659.355 198.168C660.123 196.504 660.827 193.848 661.467 190.2C661.659 189.176 661.947 188.664 662.331 188.664C662.779 188.664 663.003 189.368 663.003 190.776ZM707.015 206.328C707.015 206.84 706.599 207.096 705.767 207.096C705.319 207.096 704.903 207.064 704.519 207C700.679 206.808 697.383 206.712 694.631 206.712C691.751 206.712 687.527 206.808 681.959 207C680.103 207.064 678.727 207.096 677.831 207.096C676.871 207.096 676.391 206.808 676.391 206.232C676.391 205.912 676.551 205.72 676.871 205.656C677.255 205.592 678.503 205.528 680.615 205.464C682.599 205.08 683.751 204.504 684.071 203.736C684.391 202.904 684.551 200.312 684.551 195.96V149.784C684.551 148.568 684.551 147.384 684.551 146.232C684.487 145.08 684.455 144.536 684.455 144.6C684.455 143 682.855 142.2 679.655 142.2C677.863 142.2 676.967 141.976 676.967 141.528C676.967 141.08 677.095 140.824 677.351 140.76C677.607 140.696 678.439 140.664 679.847 140.664C679.207 140.664 680.359 140.696 683.303 140.76C686.247 140.824 688.775 140.856 690.887 140.856H695.783C696.807 140.856 698.247 140.824 700.103 140.76C702.023 140.632 703.367 140.568 704.135 140.568H705.095C705.927 140.568 706.343 140.824 706.343 141.336C706.343 141.72 706.183 141.976 705.863 142.104C705.607 142.168 704.647 142.232 702.983 142.296C700.999 142.424 699.783 142.84 699.335 143.544L699.047 145.368V199.608C699.047 202.36 699.335 203.992 699.911 204.504C700.551 205.016 702.631 205.368 706.151 205.56C706.727 205.624 707.015 205.88 707.015 206.328Z" fill="#964911"/>
<defs>
<linearGradient id="paint0_linear_80_887" x1="341.471" y1="0.651255" x2="341.471" y2="171.049" gradientUnits="userSpaceOnUse">
<stop stop-color="#4E2200"/>
<stop offset="1" stop-color="#892E00"/>
</linearGradient>
<linearGradient id="paint1_linear_80_887" x1="325.859" y1="-0.000583524" x2="326" y2="509.5" gradientUnits="userSpaceOnUse">
<stop stop-color="#93440E"/>
<stop offset="0.302885" stop-color="#FBCF60"/>
<stop offset="0.620192" stop-color="#93440E"/>
<stop offset="0.918129" stop-color="#FBCF60"/>
</linearGradient>
</defs>
</svg>
