<svg width="728" height="490" viewBox="0 0 728 490" fill="none" xmlns="http://www.w3.org/2000/svg">
<path d="M327.068 170.859C325.47 170.63 323.117 170.221 321.837 169.949L319.512 169.456L318.5 116.898C318.856 88.4341 321.073 64.0908 321.399 61.819C321.76 59.296 322.602 57.4394 323.561 57.0487C325.741 56.1611 363.774 55.7459 367.014 56.5743C369.14 57.1179 369.783 57.9549 370.322 60.8855C370.69 62.8856 373.121 88.0914 373.5 116.898L372.37 169.274L370.049 169.867C367.185 170.599 331.069 171.432 327.068 170.859ZM335.644 51.3496L330.667 51.0132L330.081 46.1994C329.758 43.5518 329.824 39.3033 330.228 36.7583L330.962 32.131L338.036 31.3937C341.926 30.9882 348.669 30.9882 353.02 31.3937L360.93 32.131L361.664 36.7583C362.067 39.3033 362.138 43.5143 361.821 46.1161L361.245 50.8467L353.933 51.4375C346.722 52.0203 345.478 52.0143 335.644 51.3496ZM336.349 18.9431C336.396 14.4894 336.723 8.77903 337.075 6.25354C337.681 1.91966 337.907 1.62342 341.105 0.979777C345.055 0.184731 351.055 0.898023 353.235 2.42188C354.42 3.25062 354.885 6.08529 355.338 15.2632L355.92 27.0409H346.092H336.264L336.349 18.9431ZM352.238 9.45716C352.238 6.81901 349.182 5.70043 348.259 8.00057C347.378 10.1947 348.624 12.4107 350.541 12.0579C351.612 11.8606 352.238 10.9022 352.238 9.45716Z" fill="url(#paint0_linear_4_131)"/>
<path d="M277.211 422.465C268.793 420.216 266.831 413.508 269.966 397.688C275.058 371.993 288.716 345.485 309.702 320.57C322.136 305.807 342.833 286.406 364.372 269.322C365.8 268.189 365 265.891 363.177 265.889L345.461 265.878L326.637 265.867C325.145 265.866 324.469 267.732 325.616 268.687C334.453 276.05 339.169 280.622 339.169 281.828C339.169 283.719 324.526 295.551 322.582 295.23C319.975 294.8 302.722 279.914 295.157 271.568C286.232 261.722 279.727 251.382 275.999 241.118C273.257 233.568 273.035 232.018 273.043 220.462C273.05 210.231 273.444 206.711 275.217 201.027C280.283 184.785 290.715 169.189 308.432 151.368L316.998 142.752C317.557 142.19 317.871 141.43 317.871 140.637V131.342C317.871 121.118 317.803 120.78 315.544 119.796C312.843 118.619 300.58 104.185 294.206 94.6793C288.118 85.5985 278.963 67.8887 275.505 58.4993C269.845 43.136 265.229 17.3334 266.657 9.04712C268.075 0.820154 278.582 -2.80089 284.936 2.74726C287.193 4.71808 288.125 6.64948 289.066 11.3078L289.808 14.9816C290.084 16.352 291.271 17.3496 292.669 17.3867L307.706 17.786L323.869 18.2152C324.656 18.2361 325.379 18.6552 325.788 19.3281C326.227 20.0508 326.231 20.9675 325.809 21.7004C325.393 22.4222 324.621 22.8836 323.788 22.8958L307.948 23.1288C287.987 23.4223 289.568 22.1505 292.643 35.4398C296.199 50.8112 302.716 65.3698 313.52 82.0789L319.326 91.0594C319.64 91.5447 319.807 92.1104 319.807 92.6883V130.711C319.807 163.375 320.027 169.7 321.175 170.122C322.161 170.483 321.328 171.83 318.187 174.951C309.901 183.185 307.403 182.518 346.545 182.518H378.337C379.415 182.518 379.993 181.25 379.285 180.436C378.289 179.291 375.735 176.584 373.609 174.42C371.484 172.257 370.271 170.487 370.914 170.487C371.81 170.487 372.084 161.196 372.084 130.778V92.0196C372.084 91.4003 372.275 90.7963 372.632 90.2903L378.509 81.9594C382.043 76.9498 386.782 69.1029 389.041 64.5218C394.217 54.024 400.017 36.9357 400.783 29.9215L401.041 27.5625C401.223 25.9046 400.017 24.4171 398.357 24.2513L395.298 23.9456C391.958 23.6118 384.55 23.3388 378.837 23.3388C368.117 23.3388 365.325 22.4137 366.583 19.2788C367.001 18.2389 370.594 17.9053 384.153 17.6474C403.231 17.2846 402.514 17.5591 403.571 10.2127C404.342 4.85474 406.973 1.41802 411.11 0.365508C415.134 -0.658286 419.195 0.484334 422.593 3.59628C425.179 5.96438 425.328 6.53445 425.323 14.0259C425.299 47.2153 408.921 85.4133 382.124 114.778L376.74 120.678C376.236 121.231 375.956 121.952 375.956 122.701V133.919C375.956 145.416 376.092 146.342 377.859 146.878C380.331 147.628 393.11 160.692 400.05 169.565C415.209 188.942 422.073 210.607 419.094 229.67C417.745 238.301 413.44 249.07 407.739 258.071C400.768 269.077 385.446 283.755 356.992 306.686C347.58 314.271 334.328 326.647 334.328 327.852C334.328 328.373 339.34 328.741 346.429 328.741C353.085 328.741 358.53 328.484 358.53 328.169C358.53 327.855 357.215 326.166 355.608 324.416C352.019 320.508 352.177 320.188 361.505 312.487L366.649 308.24C367.804 307.287 369.485 307.331 370.588 308.344L372.418 310.024C377.496 314.686 390.447 329.381 395.687 336.426C408.474 353.62 419.57 381.505 422.494 403.798C424.056 415.708 421.595 420.949 413.981 421.925C410.919 422.318 409.682 421.967 407.255 420.015C405.62 418.699 403.735 416.362 403.067 414.82L402.64 413.833C402.162 412.732 401.075 412.021 399.874 412.026L345.644 412.257L291.72 412.486C290.37 412.491 289.191 413.398 288.837 414.701L288.662 415.347C288.237 416.915 287.072 418.906 286.072 419.771C283.95 421.607 279.295 423.022 277.211 422.465ZM399.625 403.492C399.248 401.849 398.432 398.829 397.812 396.783L397.33 395.191C396.947 393.926 395.781 393.061 394.459 393.061H345.933H297.249C296.004 393.061 294.889 393.829 294.445 394.992L293.594 397.225C292.721 399.516 291.719 402.535 291.367 403.935C291.043 405.227 292.02 406.48 293.352 406.48H345.52H397.246C398.815 406.48 399.977 405.021 399.625 403.492ZM395.304 385.888C395.287 384.495 392.695 377.247 391.363 374.867C390.458 373.251 388.171 373.163 346.998 373.163C313.404 373.163 303.379 373.425 302.669 374.32C301.583 375.69 297.541 385.087 297.541 386.243C297.541 386.685 319.498 387.045 346.429 387.045C384.902 387.045 395.315 386.799 395.304 385.888ZM386.605 366.571C386.605 365.999 385.194 363.079 383.471 360.081L381.208 356.148C380.669 355.21 379.668 354.636 378.586 354.643L346.441 354.874L314.288 355.104C313.211 355.112 312.221 355.696 311.694 356.635L309.427 360.67C307.712 363.724 306.296 366.535 306.281 366.916C306.266 367.298 324.333 367.611 346.429 367.611C375.504 367.611 386.605 367.323 386.605 366.571ZM374.578 347.951C375.253 347.306 370.609 340.679 366.791 336.839L365.14 335.179C364.577 334.612 363.812 334.294 363.013 334.294H346.075C328.434 334.294 327.831 334.356 325.957 336.376C322.008 340.632 317.03 348.062 317.934 348.35C319.682 348.907 373.978 348.524 374.578 347.951ZM381.457 254C384.288 250.813 386.605 247.794 386.605 247.29C386.605 246.701 372.107 246.375 345.945 246.375C323.583 246.375 305.286 246.71 305.286 247.12C305.286 247.53 307.696 250.66 310.643 254.075L315.093 259.232C315.668 259.899 316.508 260.279 317.389 260.272L346.155 260.039L374.977 259.805C375.825 259.798 376.632 259.432 377.195 258.798L381.457 254ZM392.552 237.578C393.486 236.049 394.547 233.03 394.908 230.869L394.981 230.435C395.286 228.606 393.876 226.94 392.022 226.94H346.172H300.355C298.528 226.94 297.179 228.644 297.597 230.422C298.047 232.337 299.098 235.464 299.931 237.372L300.657 239.032C301.137 240.129 302.224 240.837 303.422 240.83L346.15 240.6L389.181 240.369C390.22 240.363 391.183 239.82 391.725 238.932L392.552 237.578ZM395.974 215.334C395.649 212.005 395.125 208.882 394.809 208.393C394.455 207.846 375.872 207.506 346.348 207.506H300.497C299.268 207.506 298.163 208.255 297.709 209.397L297.517 209.88C296.998 211.185 296.573 214.309 296.573 216.821V218.388C296.573 220.044 297.916 221.388 299.573 221.388H346.569H393.258C395.031 221.388 396.416 219.86 396.244 218.096L395.974 215.334ZM392.404 200.796C392.392 199.246 387.152 190.583 385.374 189.172C384.306 188.325 374.505 188.109 345.409 188.292L308.503 188.523C307.478 188.53 306.528 189.059 305.982 189.926L303.656 193.624C297.937 202.713 294.032 201.953 346.429 201.953C382.576 201.953 392.411 201.705 392.404 200.796Z" fill="url(#paint1_linear_4_131)"/>
<path d="M477.605 487.915C467.719 485.486 456.712 479.398 447.675 471.362C443.291 467.464 441.891 466.909 440.285 468.433C439.04 469.615 419.393 477.11 412.586 478.999C409.572 479.836 406.401 480.263 405.541 479.947C401.616 478.508 402.033 472.858 406.146 471.742C407.378 471.407 411.575 470.055 415.472 468.737C422.138 466.482 422.521 466.203 421.946 464.014C421.61 462.734 421.335 458.987 421.335 455.686C421.335 450.737 421.897 448.615 424.542 443.584C428.131 436.755 430.581 435.533 433.885 438.924C436.459 441.565 437.29 446.713 436.444 454.771L435.755 461.323L445.22 456.431C454.503 451.633 467.73 443.697 471.062 440.926C472.64 439.613 472.495 439.261 468.8 435.429C455.491 421.626 456.514 398.403 471.696 369.651C474.367 364.593 475.064 363.908 477.543 363.908C481.072 363.908 485.666 368.802 490.65 377.868C497.859 390.984 498.98 408.246 493.399 420.205C492.608 421.901 492.206 423.523 492.506 423.81C492.806 424.097 496.41 421.193 500.515 417.357L507.978 410.383L506.344 405.548C504.33 399.586 504.237 390.848 506.14 386.492C507.412 383.582 507.915 383.255 510.717 383.514C514.883 383.9 516.296 386.719 516.314 394.68C516.322 398.116 516.723 400.927 517.206 400.927C517.688 400.927 519.64 398.949 521.543 396.531C523.447 394.113 526.776 389.941 528.941 387.26C532.785 382.501 533.169 380.567 530.27 380.567C528.251 380.567 521.231 377.046 517.78 374.304C513.013 370.514 508.686 363.946 506.389 357.013C504.526 351.391 504.247 348.635 504.37 337.07C504.556 319.713 506.282 310.228 509.539 308.676C511.535 307.725 512.48 307.863 515.761 309.587C520.903 312.29 529.634 320.587 533.966 326.89C539.857 335.46 541.811 342.351 541.903 354.882C541.978 365.196 542.945 368.247 544.45 362.923C544.801 361.683 546.01 358.739 547.139 356.38C549.752 350.917 553.934 338.703 554.292 335.487C554.524 333.409 554.11 332.928 551.663 332.43C545.722 331.221 541.062 327.69 536.41 320.875C531.172 313.199 532.24 307.49 538.684 308.722C545.068 309.942 550.142 312.86 553.278 317.113C554.994 319.441 556.722 321.031 557.116 320.647C557.511 320.263 558.101 315.304 558.428 309.627L559.021 299.304L553.842 297.037C536.866 289.608 530.185 271.66 534.638 245.449C537.011 231.48 539.925 223.853 543.054 223.424C547.717 222.784 561.436 236.564 565.904 246.375C569.102 253.396 570.754 263.561 570.079 272.056C569.745 276.256 569.675 279.691 569.922 279.691C570.17 279.691 572.687 278.234 575.517 276.452C581.543 272.658 586.138 272.189 588.304 275.145C590.017 277.483 589.239 280.677 585.43 286.942C580.925 294.35 578.391 296.986 571.454 301.475C564.849 305.751 564.733 305.896 564.733 309.89V313.955L569.941 309.899C579.238 302.66 591.604 298.15 609.297 295.546C615.437 294.642 621.02 294.08 621.702 294.298C622.385 294.515 623.331 295.67 623.807 296.865C624.785 299.326 621.916 308.238 618.219 314.218C617.021 316.156 616.041 318.154 616.041 318.659C616.041 319.163 612.869 322.608 608.992 326.314C598.044 336.781 583.097 342.723 566.811 343.082L558.725 343.261L556.839 348.602C555.802 351.539 555.126 354.108 555.337 354.309C555.548 354.511 557.674 353.85 560.061 352.841C562.448 351.831 566.763 350.748 569.65 350.432C574.164 349.939 575.202 350.135 577.076 351.83C579.275 353.819 579.82 356.142 578.513 357.954C575.631 361.952 556.487 370.343 550.175 370.374C548.176 370.384 547.051 371.498 544.125 376.361C542.148 379.647 540.53 382.498 540.53 382.696C540.53 382.895 542.6 382.548 545.129 381.927C555.099 379.475 585.346 380.818 590.629 383.947C593.608 385.711 593.363 388.245 589.72 393.357C579.544 407.634 564.169 416.235 546.823 417.354C538.081 417.918 523.51 416.201 520.377 414.238C517.961 412.725 517.883 412.762 512.994 417.692C510.277 420.433 505.777 424.67 502.994 427.108C500.212 429.546 497.935 431.733 497.935 431.967C497.935 432.201 501.964 432.402 506.89 432.413C524.42 432.453 532.165 439.911 520.452 445.474C516.759 447.229 514.307 447.661 508.1 447.656C501.192 447.65 499.591 447.292 493.29 444.346L486.225 441.042L480.705 445.127C477.669 447.373 475.073 449.497 474.936 449.845C474.799 450.193 477.195 451.024 480.26 451.692C490.542 453.933 509.747 465.145 519.096 474.367C523.574 478.783 522.696 480.902 515.02 484.203C501.933 489.829 490.149 490.998 477.605 487.915ZM501.807 481.876C508.994 480.289 513.424 478.734 513.424 477.798C513.424 477.444 509.394 474.311 504.469 470.836C486.292 458.01 471.301 453.673 460.862 458.219C458.357 459.31 456.307 460.531 456.307 460.932C456.307 461.842 471.93 465.616 477.023 465.935C484.304 466.392 483.979 472.188 476.673 472.188C473.635 472.188 465.989 470.578 456.549 467.951C452.457 466.812 454.358 469.156 460.905 473.324C469.453 478.765 471.021 479.513 478.013 481.489C485.319 483.553 493.601 483.688 501.807 481.876ZM475.487 421.21C475.653 416.926 475.352 411.56 474.817 409.287C473.741 404.714 474.613 402.778 477.747 402.778C480.663 402.778 481.73 406.977 481.686 418.279C481.663 424.006 481.973 428.691 482.375 428.691C483.314 428.691 487.895 417.539 489.347 411.717C490.02 409.02 490.25 403.8 489.925 398.599C489.445 390.904 488.949 389.107 485.381 382.124C483.178 377.814 480.538 373.563 479.515 372.678C477.727 371.131 477.615 371.172 476.645 373.735C476.09 375.202 474.816 377.86 473.814 379.641C467.629 390.642 464.578 408.774 467.368 417.948C469.176 423.892 472.714 429.755 474.217 429.296C474.749 429.133 475.321 425.495 475.487 421.21ZM548.759 410.752C560.241 409.606 568.613 405.685 577.531 397.278C581.141 393.874 584.094 390.439 584.094 389.643C584.094 388.51 582.254 387.997 575.624 387.283C558.791 385.471 542.753 387.515 535.3 392.423C531.037 395.23 525.617 401.249 526.145 402.589C526.556 403.633 539.235 400.165 545.374 397.329C550.617 394.908 551.807 394.888 553.104 397.204C553.911 398.646 553.737 399.408 552.281 400.799C550.116 402.869 541.221 406.217 533.996 407.682C528.589 408.779 527.529 409.849 531.092 410.614C533.537 411.139 541.464 411.669 542.951 411.406C543.483 411.312 546.097 411.018 548.759 410.752ZM527.696 371.081C527.445 370.445 526.493 367.425 525.58 364.371C524.666 361.317 522.807 356.428 521.448 353.507C519.428 349.164 519.199 347.941 520.192 346.798C523.045 343.511 525.638 345.898 529.232 355.117C530.621 358.68 532.047 363.381 532.401 365.564C533.303 371.122 535.09 369.963 535.779 363.373C536.931 352.356 535.059 342.237 530.149 332.945C527.847 328.588 515.458 315.784 513.543 315.784C512.043 315.784 511.426 319.601 510.851 332.443C509.995 351.543 512.476 360.293 521.016 368.298C525.01 372.042 528.678 373.57 527.696 371.081ZM577.802 335.637C584.877 334.477 596.81 328.463 603.121 322.875C607.606 318.904 610.079 315.67 613.126 309.79C616.662 302.966 617.516 299.071 615.171 300.456C614.767 300.695 611.42 301.345 607.736 301.9C593.296 304.073 578.037 310.51 571.669 317.114C568.375 320.531 563.765 328.166 563.765 330.206C563.765 332.05 576.316 324.771 582.069 319.591C585.819 316.214 589.248 316.025 589.716 319.17C590.106 321.786 584.031 327.38 575.804 331.98C569.561 335.47 567.668 337.708 571.751 336.771C572.949 336.496 575.672 335.986 577.802 335.637ZM553.494 285.938C553.196 284.284 552.057 279.599 550.963 275.527C548.217 265.3 548.2 262.646 550.882 262.282C552.397 262.075 553.406 262.737 554.41 264.595C556.445 268.36 558.143 274.711 558.819 281.08C559.143 284.134 559.844 286.619 560.376 286.602C561.964 286.551 563.572 277.953 563.672 268.985C563.784 258.864 562.109 252.782 556.93 244.498C553.022 238.247 545.873 230.779 544.789 231.816C543.186 233.348 540.377 250.546 540.22 259.794C540.009 272.168 541.792 278.278 547.462 284.62C552.119 289.829 554.279 290.301 553.494 285.938ZM189.116 485.696C186.72 485.103 183.017 483.867 180.887 482.949C178.757 482.032 176.046 480.916 174.863 480.469C171.272 479.113 170.988 475.311 174.231 472.016C183.067 463.038 203.395 451.194 214.044 448.82C216.839 448.197 219.126 447.436 219.126 447.13C219.126 446.823 216.523 444.639 213.341 442.277L207.555 437.982L204.321 439.806C199.076 442.764 190.126 445.349 185.128 445.349C182.569 445.349 178.049 444.481 175.084 443.421C160.306 438.135 167.536 429.475 186.89 429.279C191.848 429.228 195.792 428.972 195.656 428.708C195.52 428.444 190.814 423.964 185.198 418.752C176.336 410.526 174.803 409.449 173.581 410.587C171.636 412.401 163.674 413.616 152.418 413.816C135.15 414.122 123.378 409.97 111.728 399.464C101.567 390.3 97.3315 381.959 101.746 379.805C107.328 377.081 135.976 375.794 146.136 377.81C149.094 378.397 151.736 378.665 152.008 378.405C152.279 378.146 151.021 375.506 149.211 372.54C146.815 368.614 145.278 367.071 143.558 366.866C137.959 366.2 125.24 361.464 119.676 357.974C114.95 355.009 113.644 353.691 113.64 351.877C113.633 349.059 114.419 347.848 117.142 346.478C119.681 345.201 128.949 346.5 133.698 348.799C135.432 349.638 137.063 350.121 137.322 349.873C137.581 349.625 136.922 346.956 135.857 343.94L133.92 338.458L125.941 338.436C102.978 338.37 82.4758 326.62 73.049 308.121C68.5101 299.215 67.1281 294.167 68.5152 291.56C69.5423 289.631 70.2734 289.425 75.6078 289.566C86.1455 289.845 103.74 294.379 114.573 299.607C116.969 300.764 120.999 303.454 123.528 305.587L128.126 309.464V305.255C128.126 301.155 127.978 300.95 122.424 297.344C115.322 292.734 109.856 286.693 105.794 278.964C103.261 274.145 102.831 272.534 103.552 270.563C104.957 266.718 109.83 266.803 116.751 270.794C119.813 272.559 122.337 273.93 122.36 273.84C122.384 273.75 122.559 268.47 122.75 262.108C123.211 246.732 125.897 239.054 134.243 229.254C140.256 222.192 146.191 217.686 149.477 217.686C151.771 217.686 152.559 218.273 153.669 220.812C156.598 227.514 159.168 239.912 159.746 250.13C160.508 263.61 158.716 272.397 153.73 279.636C149.77 285.383 147.342 287.442 139.892 291.367L134.419 294.251L134.689 304.223C135.018 316.361 135.746 318.156 138.57 313.788C141.744 308.878 144.597 306.832 151.231 304.709C157.05 302.846 157.495 302.824 159.217 304.314C161.189 306.019 161.632 308.848 160.073 309.769C159.541 310.084 159.105 310.958 159.105 311.712C159.105 313.104 156.379 317.232 152.83 321.217C150.29 324.068 144.125 327.812 141.941 327.83C137.656 327.865 137.515 329.02 140.68 338.097C144.835 350.009 149.522 361.132 150.385 361.132C150.779 361.132 150.892 358.321 150.637 354.885C149.683 342.073 154.727 326.831 163.14 317.098C167.88 311.614 177.741 303.963 181.11 303.154C183.006 302.7 184.044 303.033 185.281 304.493C187.807 307.476 189.61 320.393 189.504 334.756C189.425 345.561 189.062 348.623 187.321 353.192C182.88 364.85 177.727 370.5 167.272 375.178C163.845 376.711 161.066 378.238 161.097 378.572C161.256 380.307 175.335 397.225 176.619 397.225C177.103 397.225 177.505 394.414 177.513 390.978C177.521 387.542 178.075 383.69 178.745 382.418C180.352 379.367 184.265 378.924 186.718 381.516C189.404 384.354 189.866 394.568 187.617 401.403L185.905 406.604L193.053 413.483C196.984 417.266 200.505 420.362 200.877 420.362C201.249 420.362 200.655 417.967 199.555 415.04C195.446 404.103 196.384 387.763 201.743 376.931C207.107 366.087 212.873 359.281 216.694 359.281C218.697 359.281 219.655 360.333 222.39 365.528C231.508 382.848 234.73 393.683 234.684 406.874C234.661 413.769 234.16 417.476 232.762 421.105C230.923 425.882 224.344 435.169 222.8 435.169C218.161 435.169 234.691 446.559 250.807 454.468L258.771 458.376L258.233 449.78C257.771 442.386 257.959 440.732 259.576 437.945C261.6 434.456 264.749 433.346 267.17 435.267C271.669 438.837 274.684 449.94 273.324 457.928C272.25 464.241 271.829 463.817 282.536 467.207C291.538 470.056 292.701 470.777 292.701 473.504C292.701 476.18 290.932 477.742 287.909 477.734C284.721 477.725 271.104 473.247 259.786 468.486L250.898 464.747L249.042 467.002C246.17 470.493 233.79 479.048 227.514 481.879C224.407 483.281 219.615 485 216.865 485.7C210.91 487.216 195.244 487.214 189.116 485.696ZM210.904 480.082C219.678 478.477 226.713 475.561 234.65 470.239C240.167 466.539 242.325 463.881 238.73 465.214C236.162 466.166 221.757 469.37 218.331 469.751C215.401 470.077 211.382 468.283 211.382 466.648C211.382 464.785 214.372 463.233 218.241 463.088C223.507 462.891 237.52 459.308 237.52 458.159C237.52 456.743 229.574 453.721 225.793 453.699C214.359 453.632 201.188 459.225 185.475 470.82C182.73 472.845 180.467 474.961 180.444 475.523C180.421 476.085 183.561 477.418 187.421 478.485C199.256 481.756 201.076 481.879 210.904 480.082ZM222.427 424.295C227.942 414.747 229.317 408.402 227.823 399.392C226.636 392.229 221.999 378.621 218.462 371.918C216.166 367.568 216.039 367.482 214.214 369.06C211.485 371.422 205.694 383.408 204.587 388.985C203.2 395.977 203.423 404.075 205.166 410.039C207.541 418.161 209.634 423.474 211.04 424.944C212.114 426.067 212.31 424.6 212.237 415.991C212.189 410.233 212.662 404.213 213.312 402.333C214.304 399.458 214.845 399.012 217.038 399.255L219.604 399.539L219.27 413.189C218.926 427.297 219.509 429.347 222.427 424.295ZM164.203 406.789C165.717 405.896 163.846 404.825 159.747 404.237C155.074 403.567 146.522 400.654 142.406 398.33C139.455 396.663 138.756 392.902 141.23 391.994C142.047 391.694 145.206 392.507 148.248 393.801C151.291 395.094 156.394 396.867 159.589 397.74C162.784 398.613 165.942 399.523 166.608 399.763C169.276 400.725 167.562 397.38 163.239 393.188C156.059 386.227 148.547 383.58 134.34 383.008C124.872 382.626 109.831 383.804 108.552 385.027C107.458 386.073 112.641 392.172 118.763 397.044C125.864 402.693 134.052 406.251 142.647 407.421C147.787 408.121 162.686 407.684 164.203 406.789ZM170.474 366.113C178.482 360.273 182.958 348.876 183.093 333.977C183.183 324.008 181.419 311.143 179.968 311.191C178.404 311.242 169.45 319.471 166.096 323.94C164.448 326.135 161.875 330.924 160.377 334.583C157.916 340.592 157.654 342.327 157.662 352.534C157.672 365.388 159.026 368.893 160.904 360.932C163.624 349.405 168.017 340.772 171.162 340.772C174.197 340.772 174.646 344.024 172.264 348.756C170.439 352.383 165.882 366.182 165.882 368.083C165.882 369.043 167.276 368.444 170.474 366.113ZM123.286 331.53C123.286 331.028 121.87 330.042 120.139 329.339C115.056 327.274 105.099 319.777 103.489 316.801C102.148 314.322 102.151 313.91 103.516 312.605C105.536 310.674 105.783 310.728 109.202 313.854C113.09 317.406 126.201 325.965 127.756 325.965C130.121 325.965 126.135 317.727 121.346 312.718C116.054 307.182 106.129 301.969 96.1794 299.498C86.625 297.126 76.4196 295.508 75.6146 296.239C74.3726 297.366 83.4072 313.384 87.2256 316.824C95.6853 324.446 103.732 328.499 115.541 331.086C122.381 332.585 123.286 332.637 123.286 331.53ZM144.871 280.035C153.029 272.006 155.397 255.239 151.042 236.352C149.712 230.585 148.411 225.664 148.152 225.416C147.301 224.602 138.745 233.777 135.801 238.661C130.999 246.625 129.094 253.202 129.094 261.814C129.094 270.693 131.003 281.704 132.463 281.243C133.006 281.072 133.708 278.466 134.022 275.453C134.649 269.434 137.42 259.532 138.985 257.712C140.355 256.119 144.256 256.256 144.925 257.92C145.226 258.671 144.831 260.754 144.046 262.549C143.262 264.344 141.974 268.831 141.185 272.521C140.395 276.21 139.522 280.166 139.244 281.311C138.477 284.469 140.931 283.913 144.871 280.035Z" fill="#964911"/>
<path d="M45.216 188.088C45.216 193.912 43.136 198.744 38.976 202.584C34.88 206.36 29.632 208.248 23.232 208.248C19.328 208.248 13.952 206.936 7.104 204.312C6.592 204.12 6.144 204.024 5.76 204.024C4.672 204.024 3.84 205.176 3.264 207.48C3.072 208.184 2.816 208.536 2.496 208.536C1.984 208.536 1.728 208.088 1.728 207.192C1.728 206.36 1.888 204.888 2.208 202.776C2.464 201.048 2.592 199.032 2.592 196.728C2.592 194.872 2.56 193.4 2.496 192.312C2.368 190.136 2.304 188.856 2.304 188.472C2.304 187.448 2.624 186.936 3.264 186.936C3.904 186.936 4.48 188.312 4.992 191.064C5.888 195.8 7.904 199.48 11.04 202.104C14.432 204.92 18.08 206.328 21.984 206.328C25.44 206.328 28.352 205.24 30.72 203.064C33.088 200.888 34.272 198.232 34.272 195.096C34.272 192.408 33.504 190.264 31.968 188.664C30.816 187.512 27.104 185.24 20.832 181.848C13.856 178.136 9.12 174.424 6.624 170.712C4.32 167.32 3.168 163.288 3.168 158.616C3.168 153.112 5.12 148.568 9.024 144.984C12.928 141.336 17.856 139.512 23.808 139.512C27.008 139.512 30.432 140.28 34.08 141.816C35.296 142.328 36.16 142.584 36.672 142.584C37.632 142.584 38.272 141.752 38.592 140.088C38.72 139.512 39.008 139.224 39.456 139.224C40.096 139.224 40.416 139.64 40.416 140.472C40.416 140.792 40.352 141.688 40.224 143.16C40.096 144.632 40.032 145.848 40.032 146.808C40.032 150.136 40.16 152.952 40.416 155.256C40.48 155.448 40.512 155.704 40.512 156.024C40.512 156.6 40.256 156.888 39.744 156.888C39.168 156.888 38.592 155.864 38.016 153.816C37.44 151.768 36.416 149.752 34.944 147.768C33.536 145.72 32.096 144.248 30.624 143.352C28.704 142.2 26.464 141.624 23.904 141.624C20.32 141.624 17.472 142.488 15.36 144.216C13.248 145.944 12.192 148.312 12.192 151.32C12.192 153.944 13.184 156.28 15.168 158.328C17.152 160.312 20.96 162.872 26.592 166.008C33.504 169.848 38.08 172.92 40.32 175.224C43.584 178.616 45.216 182.904 45.216 188.088ZM117.321 185.976L117.225 187.608C117.225 187.928 117.065 189.944 116.745 193.656C116.489 196.472 116.361 198.648 116.361 200.184C116.361 202.104 116.393 203.704 116.457 204.984C116.521 205.432 116.553 205.976 116.553 206.616C116.553 207.32 116.393 207.672 116.073 207.672C115.753 207.672 115.401 207.352 115.017 206.712C113.609 204.408 112.105 202.904 110.505 202.2C105.705 206.296 100.553 208.344 95.049 208.344C86.665 208.344 79.273 205.208 72.873 198.936C66.089 192.28 62.697 183.896 62.697 173.784C62.697 163.992 65.737 155.832 71.817 149.304C77.961 142.712 85.609 139.416 94.761 139.416C98.985 139.416 102.761 140.376 106.089 142.296C108.009 143.384 109.417 143.928 110.313 143.928C111.657 143.928 112.905 143.32 114.057 142.104C114.889 141.208 115.401 140.76 115.593 140.76C115.849 140.76 115.977 140.984 115.977 141.432C115.977 141.624 115.945 141.912 115.881 142.296C115.497 144.472 115.305 147.16 115.305 150.36C115.305 150.68 115.337 151.992 115.401 154.296C115.401 156.536 115.401 158.04 115.401 158.808V160.92C115.401 162.072 115.081 162.648 114.441 162.648C113.929 162.648 113.417 161.4 112.905 158.904C110.601 147.384 105.321 141.624 97.065 141.624C90.537 141.624 85.801 145.848 82.857 154.296C80.809 160.056 79.785 166.968 79.785 175.032C79.785 187 82.217 195.768 87.081 201.336C89.641 204.28 93.001 205.752 97.161 205.752C106.185 205.752 112.105 199.736 114.921 187.704C115.369 185.72 115.881 184.728 116.457 184.728C117.097 184.728 117.385 185.144 117.321 185.976ZM187.472 190.2C187.472 190.328 187.44 193.304 187.376 199.128C187.312 202.2 187.248 204.408 187.184 205.752C187.184 207.096 187.184 207.736 187.184 207.672C170.288 206.904 155.504 206.68 142.832 207L134.768 207.192C133.616 207.192 133.04 206.936 133.04 206.424C133.04 206.04 133.168 205.816 133.424 205.752C133.744 205.688 134.736 205.592 136.4 205.464C139.408 205.272 141.04 204.408 141.296 202.872C141.424 202.04 141.488 201.112 141.488 200.088V151.416C141.488 147.576 141.456 145.464 141.392 145.08C141.328 144.056 141.008 143.352 140.432 142.968C139.856 142.584 138.672 142.392 136.88 142.392C134.896 142.392 133.904 142.104 133.904 141.528C133.904 140.888 134.768 140.568 136.496 140.568C138.288 140.568 140.752 140.536 143.888 140.472C155.664 140.216 165.296 140.152 172.784 140.28L179.312 140.376C180.72 140.376 182.448 140.248 184.496 139.992L185.36 150.456C185.68 153.784 185.84 155.832 185.84 156.6C185.84 157.24 185.52 157.56 184.88 157.56C184.24 157.56 183.824 156.728 183.632 155.064C183.056 150.648 181.264 147.448 178.256 145.464C175.312 143.416 170.928 142.392 165.104 142.392C163.312 142.392 160.24 142.488 155.888 142.68V171C162.928 171.064 167.344 170.584 169.136 169.56C170.992 168.472 172.24 165.72 172.88 161.304C173.2 158.936 173.68 157.752 174.32 157.752C174.896 157.752 175.184 158.328 175.184 159.48C175.184 160.632 175.088 163 174.896 166.584C174.832 167.8 174.8 169.432 174.8 171.48C174.8 176.984 174.864 181.144 174.992 183.96C175.056 184.344 175.088 184.824 175.088 185.4C175.088 186.168 174.8 186.552 174.224 186.552C173.776 186.552 173.488 186.424 173.36 186.168C173.232 185.848 173.04 184.792 172.784 183C172.144 178.456 171.248 175.64 170.096 174.552C169.008 173.4 166.448 172.824 162.416 172.824H155.888V205.176L162.032 205.08C169.072 204.952 173.36 204.792 174.896 204.6C176.816 204.344 178.672 203.64 180.464 202.488C182.064 201.208 183.152 199.832 183.728 198.36C184.368 196.888 185.04 194.168 185.744 190.2C185.936 189.24 186.256 188.76 186.704 188.76C187.216 188.76 187.472 189.24 187.472 190.2ZM265.782 141.624C265.782 141.944 265.526 142.136 265.014 142.2C264.566 142.264 262.87 142.36 259.926 142.488C258.198 142.552 257.206 142.904 256.95 143.544C256.694 143.928 256.598 145.976 256.662 149.688L256.758 160.824C256.822 168.248 256.854 177.944 256.854 189.912V206.232C256.854 207.32 256.63 207.864 256.182 207.864C255.478 207.864 250.806 202.584 242.166 192.024C233.59 181.4 224.15 169.272 213.846 155.64V162.744C213.846 165.176 213.878 167.288 213.942 169.08C213.942 170.872 213.942 171.96 213.942 172.344V202.2C213.942 203.544 214.358 204.376 215.19 204.696C216.534 205.208 218.102 205.464 219.894 205.464C222.006 205.464 223.19 205.624 223.446 205.944C223.51 206.008 223.542 206.136 223.542 206.328C223.542 206.84 223.062 207.096 222.102 207.096C221.526 207.096 221.046 207.064 220.662 207C216.822 206.872 214.422 206.808 213.462 206.808C211.222 206.808 208.278 206.872 204.63 207C202.838 207.064 202.07 207.096 202.326 207.096C201.366 207.096 200.886 206.84 200.886 206.328C200.886 205.88 202.294 205.56 205.11 205.368C208.374 205.112 210.262 204.6 210.774 203.832C211.094 203.32 211.254 201.016 211.254 196.92V157.464C211.254 153.432 211.19 151 211.062 150.168C210.678 147.352 209.558 145.304 207.702 144.024C206.294 143.064 203.67 142.52 199.83 142.392C198.806 142.328 198.294 142.04 198.294 141.528C198.294 140.952 198.742 140.664 199.638 140.664C200.022 140.664 201.398 140.728 203.766 140.856C204.918 140.92 206.646 140.952 208.95 140.952C213.686 140.952 217.526 140.888 220.47 140.76L254.166 184.056V146.04C254.166 144.504 253.91 143.544 253.398 143.16C252.886 142.712 251.798 142.456 250.134 142.392L246.006 142.2C245.238 142.136 244.854 141.912 244.854 141.528C244.854 141.016 245.43 140.76 246.582 140.76H248.694C249.078 140.76 249.718 140.728 250.614 140.664C251.446 140.664 252.182 140.664 252.822 140.664C259.286 140.664 263.062 140.696 264.15 140.76C265.238 140.824 265.782 141.112 265.782 141.624Z" fill="#964911"/>
<path d="M482.832 158.424C482.832 158.936 482.608 159.192 482.16 159.192C481.456 159.192 480.816 157.944 480.24 155.448C479.088 150.52 477.488 147.16 475.44 145.368C473.392 143.576 470.128 142.68 465.648 142.68C463.92 142.68 462.416 142.744 461.136 142.872L461.232 201.24C461.296 202.84 461.744 203.864 462.576 204.312C463.408 204.76 465.648 205.144 469.296 205.464C470 205.528 470.352 205.816 470.352 206.328C470.352 206.968 469.84 207.288 468.816 207.288C468.624 207.288 468.144 207.256 467.376 207.192C466.416 207.128 465.616 207.096 464.976 207.096L455.088 206.808L438.768 207.096C437.872 207.096 437.424 206.84 437.424 206.328C437.424 205.944 437.552 205.72 437.808 205.656C438.064 205.592 439.12 205.528 440.976 205.464C444.496 205.336 446.384 204.504 446.64 202.968C446.768 202.136 446.832 195.64 446.832 183.48V142.872C446.128 142.808 445.296 142.776 444.336 142.776C439.216 142.776 435.472 143.736 433.104 145.656C430.8 147.512 429.296 150.84 428.592 155.64C428.144 158.456 427.568 159.864 426.864 159.864C426.288 159.864 426 159.48 426 158.712C426 158.2 426.128 156.44 426.384 153.432C426.896 147.16 427.216 142.872 427.344 140.568H428.784L435.792 140.472C435.984 140.472 438.192 140.536 442.416 140.664C446.704 140.792 452.144 140.856 458.736 140.856C462.384 140.856 465.648 140.824 468.528 140.76C471.408 140.696 474.032 140.664 476.4 140.664C478.512 140.664 480.112 140.6 481.2 140.472C481.392 144.632 481.872 149.944 482.64 156.408C482.768 157.496 482.832 158.168 482.832 158.424ZM549.066 190.2C549.066 190.328 549.034 193.304 548.97 199.128C548.906 202.2 548.842 204.408 548.778 205.752C548.778 207.096 548.778 207.736 548.778 207.672C531.882 206.904 517.098 206.68 504.426 207L496.362 207.192C495.21 207.192 494.634 206.936 494.634 206.424C494.634 206.04 494.762 205.816 495.018 205.752C495.338 205.688 496.33 205.592 497.994 205.464C501.002 205.272 502.634 204.408 502.89 202.872C503.018 202.04 503.082 201.112 503.082 200.088V151.416C503.082 147.576 503.05 145.464 502.986 145.08C502.922 144.056 502.602 143.352 502.026 142.968C501.45 142.584 500.266 142.392 498.474 142.392C496.49 142.392 495.498 142.104 495.498 141.528C495.498 140.888 496.362 140.568 498.09 140.568C499.882 140.568 502.346 140.536 505.482 140.472C517.258 140.216 526.89 140.152 534.378 140.28L540.906 140.376C542.314 140.376 544.042 140.248 546.09 139.992L546.954 150.456C547.274 153.784 547.434 155.832 547.434 156.6C547.434 157.24 547.114 157.56 546.474 157.56C545.834 157.56 545.418 156.728 545.226 155.064C544.65 150.648 542.858 147.448 539.85 145.464C536.906 143.416 532.522 142.392 526.698 142.392C524.906 142.392 521.834 142.488 517.482 142.68V171C524.522 171.064 528.938 170.584 530.73 169.56C532.586 168.472 533.834 165.72 534.474 161.304C534.794 158.936 535.274 157.752 535.914 157.752C536.49 157.752 536.778 158.328 536.778 159.48C536.778 160.632 536.682 163 536.49 166.584C536.426 167.8 536.394 169.432 536.394 171.48C536.394 176.984 536.458 181.144 536.586 183.96C536.65 184.344 536.682 184.824 536.682 185.4C536.682 186.168 536.394 186.552 535.818 186.552C535.37 186.552 535.082 186.424 534.954 186.168C534.826 185.848 534.634 184.792 534.378 183C533.738 178.456 532.842 175.64 531.69 174.552C530.602 173.4 528.042 172.824 524.01 172.824H517.482V205.176L523.626 205.08C530.666 204.952 534.954 204.792 536.49 204.6C538.41 204.344 540.266 203.64 542.058 202.488C543.658 201.208 544.746 199.832 545.322 198.36C545.962 196.888 546.634 194.168 547.338 190.2C547.53 189.24 547.85 188.76 548.298 188.76C548.81 188.76 549.066 189.24 549.066 190.2ZM616.816 190.776C616.816 191.992 616.784 193.016 616.72 193.848C616.464 196.664 616.368 198.936 616.432 200.664L616.528 207.48C608.336 207.16 593.52 207 572.08 207H568.048C565.232 207 563.824 206.744 563.824 206.232C563.824 205.72 564.272 205.464 565.168 205.464C568.368 205.4 570.416 204.952 571.312 204.12C571.888 203.608 572.176 202.072 572.176 199.512L572.08 147.48C572.08 145.304 571.888 143.96 571.504 143.448C570.736 142.488 569.552 142.04 567.952 142.104L565.552 142.2C564.848 142.2 564.496 141.944 564.496 141.432C564.496 140.92 564.944 140.664 565.84 140.664C566.352 140.664 566.864 140.696 567.376 140.76H591.76C592.08 140.696 592.432 140.664 592.816 140.664C593.456 140.664 593.776 140.92 593.776 141.432C593.776 142.008 592.944 142.296 591.28 142.296C588.912 142.296 587.504 142.584 587.056 143.16C586.672 143.736 586.48 146.264 586.48 150.744V173.592C586.48 178.264 586.608 188.728 586.864 204.984C588.08 205.048 589.456 205.08 590.992 205.08C597.712 205.08 602.352 204.824 604.912 204.312C608.944 203.48 611.696 201.432 613.168 198.168C613.936 196.504 614.64 193.848 615.28 190.2C615.472 189.176 615.76 188.664 616.144 188.664C616.592 188.664 616.816 189.368 616.816 190.776ZM683.003 190.776C683.003 191.992 682.971 193.016 682.907 193.848C682.651 196.664 682.555 198.936 682.619 200.664L682.715 207.48C674.523 207.16 659.707 207 638.267 207H634.235C631.419 207 630.011 206.744 630.011 206.232C630.011 205.72 630.459 205.464 631.355 205.464C634.555 205.4 636.603 204.952 637.499 204.12C638.075 203.608 638.363 202.072 638.363 199.512L638.267 147.48C638.267 145.304 638.075 143.96 637.691 143.448C636.923 142.488 635.739 142.04 634.139 142.104L631.739 142.2C631.035 142.2 630.683 141.944 630.683 141.432C630.683 140.92 631.131 140.664 632.027 140.664C632.539 140.664 633.051 140.696 633.563 140.76H657.947C658.267 140.696 658.619 140.664 659.003 140.664C659.643 140.664 659.963 140.92 659.963 141.432C659.963 142.008 659.131 142.296 657.467 142.296C655.099 142.296 653.691 142.584 653.243 143.16C652.859 143.736 652.667 146.264 652.667 150.744V173.592C652.667 178.264 652.795 188.728 653.051 204.984C654.267 205.048 655.643 205.08 657.179 205.08C663.899 205.08 668.539 204.824 671.099 204.312C675.131 203.48 677.883 201.432 679.355 198.168C680.123 196.504 680.827 193.848 681.467 190.2C681.659 189.176 681.947 188.664 682.331 188.664C682.779 188.664 683.003 189.368 683.003 190.776ZM727.015 206.328C727.015 206.84 726.599 207.096 725.767 207.096C725.319 207.096 724.903 207.064 724.519 207C720.679 206.808 717.383 206.712 714.631 206.712C711.751 206.712 707.527 206.808 701.959 207C700.103 207.064 698.727 207.096 697.831 207.096C696.871 207.096 696.391 206.808 696.391 206.232C696.391 205.912 696.551 205.72 696.871 205.656C697.255 205.592 698.503 205.528 700.615 205.464C702.599 205.08 703.751 204.504 704.071 203.736C704.391 202.904 704.551 200.312 704.551 195.96V149.784C704.551 148.568 704.551 147.384 704.551 146.232C704.487 145.08 704.455 144.536 704.455 144.6C704.455 143 702.855 142.2 699.655 142.2C697.863 142.2 696.967 141.976 696.967 141.528C696.967 141.08 697.095 140.824 697.351 140.76C697.607 140.696 698.439 140.664 699.847 140.664C699.207 140.664 700.359 140.696 703.303 140.76C706.247 140.824 708.775 140.856 710.887 140.856H715.783C716.807 140.856 718.247 140.824 720.103 140.76C722.023 140.632 723.367 140.568 724.135 140.568H725.095C725.927 140.568 726.343 140.824 726.343 141.336C726.343 141.72 726.183 141.976 725.863 142.104C725.607 142.168 724.647 142.232 722.983 142.296C720.999 142.424 719.783 142.84 719.335 143.544L719.047 145.368V199.608C719.047 202.36 719.335 203.992 719.911 204.504C720.551 205.016 722.631 205.368 726.151 205.56C726.727 205.624 727.015 205.88 727.015 206.328Z" fill="#964911"/>
<defs>
<linearGradient id="paint0_linear_4_131" x1="361.471" y1="0.6515" x2="361.471" y2="171.049" gradientUnits="userSpaceOnUse">
<stop stop-color="#4E2200"/>
<stop offset="1" stop-color="#892E00"/>
</linearGradient>
<linearGradient id="paint1_linear_4_131" x1="345.859" y1="-0.000583524" x2="346" y2="509.5" gradientUnits="userSpaceOnUse">
<stop stop-color="#93440E"/>
<stop offset="0.302885" stop-color="#FBCF60"/>
<stop offset="0.620192" stop-color="#93440E"/>
<stop offset="0.918129" stop-color="#FBCF60"/>
</linearGradient>
</defs>
</svg>
